<mxfile host="65bd71144e">
    <diagram id="huvjwfH_LWe6LAb27CaQ" name="Page-1">
        <mxGraphModel dx="4630" dy="3456" grid="1" gridSize="10" guides="1" tooltips="1" connect="1" arrows="1" fold="1" page="1" pageScale="1" pageWidth="850" pageHeight="1100" background="none" math="0" shadow="0">
            <root>
                <mxCell id="0"/>
                <mxCell id="1" parent="0"/>
                <mxCell id="434" style="edgeStyle=orthogonalEdgeStyle;rounded=0;orthogonalLoop=1;jettySize=auto;html=1;strokeWidth=2;strokeColor=#005700;fillColor=#008a00;" parent="1" source="435" target="462" edge="1">
                    <mxGeometry relative="1" as="geometry"/>
                </mxCell>
                <mxCell id="435" value="What is the measurement property?" style="whiteSpace=wrap;html=1;aspect=fixed;fillColor=#F8CECC;" parent="1" vertex="1">
                    <mxGeometry x="220.74" y="500.62999999999994" width="88" height="88" as="geometry"/>
                </mxCell>
                <mxCell id="436" style="edgeStyle=orthogonalEdgeStyle;shape=connector;rounded=0;orthogonalLoop=1;jettySize=auto;html=1;entryX=0;entryY=0.5;entryDx=0;entryDy=0;labelBackgroundColor=default;strokeColor=#005700;strokeWidth=2;fontFamily=Helvetica;fontSize=11;fontColor=default;endArrow=classic;fillColor=#008a00;dashed=1;" parent="1" source="437" target="555" edge="1">
                    <mxGeometry relative="1" as="geometry">
                        <mxPoint x="457.75" y="702.99" as="targetPoint"/>
                    </mxGeometry>
                </mxCell>
                <mxCell id="437" value="No" style="text;html=1;align=center;verticalAlign=middle;resizable=0;points=[];autosize=1;strokeColor=none;fillColor=none;" parent="1" vertex="1">
                    <mxGeometry x="377.75" y="672.99" width="40" height="30" as="geometry"/>
                </mxCell>
                <mxCell id="438" style="edgeStyle=orthogonalEdgeStyle;shape=connector;rounded=0;orthogonalLoop=1;jettySize=auto;html=1;entryX=0;entryY=0.5;entryDx=0;entryDy=0;labelBackgroundColor=default;strokeColor=#005700;strokeWidth=2;fontFamily=Helvetica;fontSize=11;fontColor=default;endArrow=classic;fillColor=#008a00;dashed=1;" parent="1" source="440" target="559" edge="1">
                    <mxGeometry relative="1" as="geometry">
                        <mxPoint x="400.4999999999909" y="1339.0599999999995" as="targetPoint"/>
                    </mxGeometry>
                </mxCell>
                <mxCell id="439" style="edgeStyle=orthogonalEdgeStyle;shape=connector;rounded=0;orthogonalLoop=1;jettySize=auto;html=1;labelBackgroundColor=default;strokeColor=#005700;strokeWidth=2;fontFamily=Helvetica;fontSize=11;fontColor=default;endArrow=classic;fillColor=#008a00;" parent="1" source="440" target="621" edge="1">
                    <mxGeometry relative="1" as="geometry"/>
                </mxCell>
                <mxCell id="440" value="What's the measurement-matrix-relationship?" style="whiteSpace=wrap;html=1;fillColor=#FFFFCC;" parent="1" vertex="1">
                    <mxGeometry x="197.5" y="1382.7899999999997" width="140" height="72.53" as="geometry"/>
                </mxCell>
                <mxCell id="441" style="edgeStyle=orthogonalEdgeStyle;rounded=0;orthogonalLoop=1;jettySize=auto;html=1;strokeColor=#005700;strokeWidth=2;fillColor=#008a00;dashed=1;" parent="1" source="443" edge="1">
                    <mxGeometry relative="1" as="geometry">
                        <mxPoint x="385.51" y="1005.59" as="targetPoint"/>
                    </mxGeometry>
                </mxCell>
                <mxCell id="442" style="edgeStyle=orthogonalEdgeStyle;shape=connector;rounded=0;orthogonalLoop=1;jettySize=auto;html=1;labelBackgroundColor=default;strokeColor=#005700;strokeWidth=2;fontFamily=Helvetica;fontSize=11;fontColor=default;endArrow=classic;fillColor=#008a00;" parent="1" source="443" target="618" edge="1">
                    <mxGeometry relative="1" as="geometry"/>
                </mxCell>
                <mxCell id="443" value="What is the matrix?&lt;br&gt;&lt;i&gt;&lt;font style=&quot;font-size: 10px;&quot;&gt;(note: most of the time matrix is not needed for biological data)&lt;/font&gt;&lt;/i&gt;" style="whiteSpace=wrap;html=1;fillColor=#FFFFCC;" parent="1" vertex="1">
                    <mxGeometry x="207.505" y="968.35" width="110" height="75.24" as="geometry"/>
                </mxCell>
                <mxCell id="444" style="edgeStyle=orthogonalEdgeStyle;shape=connector;rounded=0;orthogonalLoop=1;jettySize=auto;html=1;entryX=0;entryY=0.5;entryDx=0;entryDy=0;labelBackgroundColor=default;strokeColor=#005700;strokeWidth=2;fontFamily=Helvetica;fontSize=11;fontColor=default;endArrow=classic;fillColor=#008a00;dashed=1;" parent="1" source="448" target="450" edge="1">
                    <mxGeometry relative="1" as="geometry">
                        <Array as="points">
                            <mxPoint x="445.51" y="1211.59"/>
                            <mxPoint x="445.51" y="1182.59"/>
                        </Array>
                    </mxGeometry>
                </mxCell>
                <mxCell id="445" style="edgeStyle=orthogonalEdgeStyle;shape=connector;rounded=0;orthogonalLoop=1;jettySize=auto;html=1;labelBackgroundColor=default;strokeColor=#005700;strokeWidth=2;fontFamily=Helvetica;fontSize=11;fontColor=default;endArrow=classic;fillColor=#008a00;dashed=1;" parent="1" source="448" target="451" edge="1">
                    <mxGeometry relative="1" as="geometry"/>
                </mxCell>
                <mxCell id="446" style="edgeStyle=orthogonalEdgeStyle;shape=connector;rounded=0;orthogonalLoop=1;jettySize=auto;html=1;labelBackgroundColor=default;strokeColor=#005700;strokeWidth=2;fontFamily=Helvetica;fontSize=11;fontColor=default;endArrow=classic;fillColor=#008a00;dashed=1;" parent="1" source="448" target="452" edge="1">
                    <mxGeometry relative="1" as="geometry">
                        <Array as="points">
                            <mxPoint x="445.51" y="1211.59"/>
                            <mxPoint x="445.51" y="1240.59"/>
                        </Array>
                    </mxGeometry>
                </mxCell>
                <mxCell id="447" style="edgeStyle=orthogonalEdgeStyle;shape=connector;rounded=0;orthogonalLoop=1;jettySize=auto;html=1;labelBackgroundColor=default;strokeColor=#005700;strokeWidth=2;fontFamily=Helvetica;fontSize=11;fontColor=default;endArrow=classic;fillColor=#008a00;" parent="1" source="448" target="619" edge="1">
                    <mxGeometry relative="1" as="geometry"/>
                </mxCell>
                <mxCell id="448" value="Were any methods used to obtain the measurement?" style="whiteSpace=wrap;html=1;fillColor=#FFFFCC;" parent="1" vertex="1">
                    <mxGeometry x="197.505" y="1173.2299999999998" width="130" height="78.5" as="geometry"/>
                </mxCell>
                <mxCell id="449" value="See S26 &lt;br&gt;or:" style="ellipse;whiteSpace=wrap;html=1;aspect=fixed;fillColor=#FFFFCC;" parent="1" vertex="1">
                    <mxGeometry x="365.51" y="1184.73" width="55.75" height="55.75" as="geometry"/>
                </mxCell>
                <mxCell id="450" value="&lt;div&gt;S03 for Sample preparation&lt;/div&gt;" style="text;html=1;strokeColor=none;fillColor=none;align=left;verticalAlign=middle;whiteSpace=wrap;rounded=0;" parent="1" vertex="1">
                    <mxGeometry x="485.51" y="1168.54" width="159.01" height="30" as="geometry"/>
                </mxCell>
                <mxCell id="451" value="&lt;div&gt;S04 for Analytical methods&lt;/div&gt;" style="text;html=1;strokeColor=none;fillColor=none;align=left;verticalAlign=middle;whiteSpace=wrap;rounded=0;" parent="1" vertex="1">
                    <mxGeometry x="485.51" y="1197.59" width="160" height="30" as="geometry"/>
                </mxCell>
                <mxCell id="452" value="&lt;div&gt;S05 for Data processing methods&lt;/div&gt;" style="text;html=1;strokeColor=none;fillColor=none;align=left;verticalAlign=middle;whiteSpace=wrap;rounded=0;" parent="1" vertex="1">
                    <mxGeometry x="485.51" y="1226.42" width="190" height="30" as="geometry"/>
                </mxCell>
                <mxCell id="453" style="edgeStyle=orthogonalEdgeStyle;shape=connector;rounded=0;orthogonalLoop=1;jettySize=auto;html=1;labelBackgroundColor=default;strokeColor=#005700;strokeWidth=2;fontFamily=Helvetica;fontSize=11;fontColor=default;endArrow=classic;fillColor=#008a00;entryX=0;entryY=0.5;entryDx=0;entryDy=0;dashed=1;" parent="1" source="454" target="466" edge="1">
                    <mxGeometry relative="1" as="geometry"/>
                </mxCell>
                <mxCell id="454" value="&lt;span style=&quot;color: rgb(0, 0, 0); font-family: Helvetica; font-size: 12px; font-style: normal; font-variant-ligatures: normal; font-variant-caps: normal; font-weight: 400; letter-spacing: normal; orphans: 2; text-indent: 0px; text-transform: none; widows: 2; word-spacing: 0px; -webkit-text-stroke-width: 0px; background-color: rgb(248, 249, 250); text-decoration-thickness: initial; text-decoration-style: initial; text-decoration-color: initial; float: none; display: inline !important;&quot;&gt;Yes&lt;br&gt;&lt;/span&gt;" style="text;whiteSpace=wrap;html=1;align=center;" parent="1" vertex="1">
                    <mxGeometry x="377.75" y="640.49" width="40" height="25" as="geometry"/>
                </mxCell>
                <mxCell id="455" style="edgeStyle=orthogonalEdgeStyle;rounded=0;orthogonalLoop=1;jettySize=auto;html=1;labelBackgroundColor=default;strokeColor=#005700;strokeWidth=2;fontFamily=Helvetica;fontSize=11;fontColor=default;endArrow=none;fillColor=#008a00;endFill=0;entryX=0.5;entryY=0;entryDx=0;entryDy=0;" parent="1" source="456" target="616" edge="1">
                    <mxGeometry relative="1" as="geometry"/>
                </mxCell>
                <mxCell id="456" value="&lt;span style=&quot;font-family: Verdana;&quot;&gt;Biological&lt;br&gt;entity specified elsewhere &lt;br&gt;[&lt;i&gt;no&lt;/i&gt; sub-component]&lt;br&gt;&lt;/span&gt;" style="ellipse;whiteSpace=wrap;html=1;align=center;dashed=1;fillColor=#CCFFCC;" parent="1" vertex="1">
                    <mxGeometry x="130" y="213.12999999999997" width="121.5" height="95" as="geometry"/>
                </mxCell>
                <mxCell id="457" style="edgeStyle=orthogonalEdgeStyle;rounded=0;orthogonalLoop=1;jettySize=auto;html=1;exitX=0.5;exitY=1;exitDx=0;exitDy=0;strokeWidth=2;strokeColor=#005700;fillColor=#008a00;" parent="1" source="459" target="456" edge="1">
                    <mxGeometry relative="1" as="geometry"/>
                </mxCell>
                <mxCell id="458" value="" style="edgeStyle=orthogonalEdgeStyle;rounded=0;orthogonalLoop=1;jettySize=auto;html=1;" parent="1" source="459" target="550" edge="1">
                    <mxGeometry relative="1" as="geometry"/>
                </mxCell>
                <mxCell id="459" value="What is the object of interest that is being measured? Is there a subcomponent?" style="whiteSpace=wrap;html=1;align=center;fillColor=#F8CECC;" parent="1" vertex="1">
                    <mxGeometry x="197.5" y="76.13000000000002" width="113" height="80" as="geometry"/>
                </mxCell>
                <mxCell id="460" style="edgeStyle=orthogonalEdgeStyle;shape=connector;rounded=0;orthogonalLoop=1;jettySize=auto;html=1;exitX=1;exitY=0.5;exitDx=0;exitDy=0;labelBackgroundColor=default;strokeColor=#005700;strokeWidth=2;fontFamily=Helvetica;fontSize=11;fontColor=default;endArrow=classic;fillColor=#008a00;dashed=1;" parent="1" source="462" edge="1">
                    <mxGeometry relative="1" as="geometry">
                        <mxPoint x="377.75" y="667.99" as="targetPoint"/>
                    </mxGeometry>
                </mxCell>
                <mxCell id="461" style="edgeStyle=orthogonalEdgeStyle;shape=connector;rounded=0;orthogonalLoop=1;jettySize=auto;html=1;exitX=0.5;exitY=1;exitDx=0;exitDy=0;labelBackgroundColor=default;strokeColor=#005700;strokeWidth=2;fontFamily=Helvetica;fontSize=11;fontColor=default;endArrow=classic;fillColor=#008a00;" parent="1" source="462" target="617" edge="1">
                    <mxGeometry relative="1" as="geometry"/>
                </mxCell>
                <mxCell id="462" value="&lt;div style=&quot;border-color: var(--border-color);&quot;&gt;Is it a statistically derived&amp;nbsp;&lt;/div&gt;parameter? (e.g. mean, max)" style="ellipse;whiteSpace=wrap;html=1;fillColor=#FFFFCC;" parent="1" vertex="1">
                    <mxGeometry x="206.12" y="622.99" width="117.25" height="90" as="geometry"/>
                </mxCell>
                <mxCell id="463" value="Optional" style="text;html=1;strokeColor=none;fillColor=#FFFFCC;align=center;verticalAlign=middle;whiteSpace=wrap;rounded=0;" parent="1" vertex="1">
                    <mxGeometry x="-407.98" y="-815.84" width="90" height="40" as="geometry"/>
                </mxCell>
                <mxCell id="464" value="Strongly recommended" style="text;html=1;strokeColor=none;fillColor=#FFCCCC;align=center;verticalAlign=middle;whiteSpace=wrap;rounded=0;" parent="1" vertex="1">
                    <mxGeometry x="-508.99" y="-815.84" width="91.01" height="40" as="geometry"/>
                </mxCell>
                <mxCell id="465" value="Pre-determined" style="text;html=1;strokeColor=none;fillColor=#CCFFCC;align=center;verticalAlign=middle;whiteSpace=wrap;rounded=0;" parent="1" vertex="1">
                    <mxGeometry x="-308.99" y="-815.84" width="91.01" height="40" as="geometry"/>
                </mxCell>
                <mxCell id="466" value="Terms in S07 if interested" style="ellipse;whiteSpace=wrap;html=1;fillColor=#FFFFCC;" parent="1" vertex="1">
                    <mxGeometry x="458.74" y="602.99" width="69.01" height="60" as="geometry"/>
                </mxCell>
                <mxCell id="467" value="" style="edgeStyle=orthogonalEdgeStyle;rounded=0;orthogonalLoop=1;jettySize=auto;html=1;strokeWidth=2;strokeColor=#005700;fillColor=#008a00;entryX=0.5;entryY=0;entryDx=0;entryDy=0;" parent="1" source="470" target="499" edge="1">
                    <mxGeometry relative="1" as="geometry">
                        <mxPoint x="400" y="-190" as="targetPoint"/>
                    </mxGeometry>
                </mxCell>
                <mxCell id="468" style="edgeStyle=orthogonalEdgeStyle;shape=connector;rounded=0;orthogonalLoop=1;jettySize=auto;html=1;labelBackgroundColor=default;strokeColor=#363636;strokeWidth=3;fontFamily=Helvetica;fontSize=11;fontColor=default;endArrow=classic;dashed=1;dashPattern=1 2;exitX=0.801;exitY=0.008;exitDx=0;exitDy=0;exitPerimeter=0;" parent="1" source="470" target="604" edge="1">
                    <mxGeometry relative="1" as="geometry"/>
                </mxCell>
                <mxCell id="469" style="edgeStyle=orthogonalEdgeStyle;shape=connector;rounded=0;orthogonalLoop=1;jettySize=auto;html=1;entryX=0.5;entryY=0;entryDx=0;entryDy=0;labelBackgroundColor=default;strokeColor=#FF9933;strokeWidth=2;align=center;verticalAlign=middle;fontFamily=Helvetica;fontSize=11;fontColor=default;endArrow=classic;" parent="1" source="470" edge="1">
                    <mxGeometry relative="1" as="geometry">
                        <mxPoint x="-1340.1400000000003" y="-152.13999999999987" as="targetPoint"/>
                    </mxGeometry>
                </mxCell>
                <mxCell id="470" value="&lt;font style=&quot;font-size: 14px;&quot;&gt;What type of measurement do you have?&lt;/font&gt;" style="whiteSpace=wrap;html=1;align=center;fillColor=#F8CECC;fontStyle=1" parent="1" vertex="1">
                    <mxGeometry x="-405" y="-274" width="180" height="74.36" as="geometry"/>
                </mxCell>
                <mxCell id="471" value="" style="edgeStyle=orthogonalEdgeStyle;rounded=0;orthogonalLoop=1;jettySize=auto;html=1;exitX=0.5;exitY=1;exitDx=0;exitDy=0;strokeWidth=2;strokeColor=#005700;fillColor=#008a00;" parent="1" source="499" target="550" edge="1">
                    <mxGeometry relative="1" as="geometry"/>
                </mxCell>
                <mxCell id="472" style="edgeStyle=orthogonalEdgeStyle;rounded=0;orthogonalLoop=1;jettySize=auto;html=1;strokeColor=#9933FF;strokeWidth=2;" parent="1" source="473" target="480" edge="1">
                    <mxGeometry relative="1" as="geometry"/>
                </mxCell>
                <mxCell id="473" value="&lt;b&gt;Physical or abiotic &lt;/b&gt;(e.g. temperature, salinity)" style="whiteSpace=wrap;html=1;align=center;fillColor=#B266FF;" parent="1" vertex="1">
                    <mxGeometry x="-938.26" y="-150.85999999999999" width="123.5" height="78.72" as="geometry"/>
                </mxCell>
                <mxCell id="474" style="edgeStyle=orthogonalEdgeStyle;shape=connector;rounded=0;orthogonalLoop=1;jettySize=auto;html=1;entryX=0.5;entryY=0;entryDx=0;entryDy=0;labelBackgroundColor=default;strokeColor=#006EAF;strokeWidth=2;fontFamily=Helvetica;fontSize=11;fontColor=default;endArrow=classic;fillColor=#1ba1e2;" parent="1" source="475" target="482" edge="1">
                    <mxGeometry relative="1" as="geometry"/>
                </mxCell>
                <mxCell id="475" value="&lt;b&gt;Chemical substance&lt;/b&gt;&lt;br&gt;(e.g. concentration, flux, sedimentation rate)" style="whiteSpace=wrap;html=1;fillColor=#66B2FF;" parent="1" vertex="1">
                    <mxGeometry x="-380" y="-150" width="130" height="78.72" as="geometry"/>
                </mxCell>
                <mxCell id="478" style="edgeStyle=orthogonalEdgeStyle;rounded=0;orthogonalLoop=1;jettySize=auto;html=1;entryX=0.5;entryY=0;entryDx=0;entryDy=0;strokeWidth=2;strokeColor=#005700;fillColor=#008a00;exitX=0.5;exitY=1;exitDx=0;exitDy=0;" parent="1" source="550" target="459" edge="1">
                    <mxGeometry relative="1" as="geometry">
                        <mxPoint x="207.25" y="38.130000000000024" as="sourcePoint"/>
                    </mxGeometry>
                </mxCell>
                <mxCell id="479" style="edgeStyle=orthogonalEdgeStyle;shape=connector;rounded=0;orthogonalLoop=1;jettySize=auto;html=1;labelBackgroundColor=default;strokeColor=#9933FF;strokeWidth=2;fontFamily=Helvetica;fontSize=11;fontColor=default;endArrow=classic;" parent="1" source="480" target="509" edge="1">
                    <mxGeometry relative="1" as="geometry"/>
                </mxCell>
                <mxCell id="480" value="ACTION: navigate to&amp;nbsp;&lt;a href=&quot;https://vocab.seadatanet.org/p01-facet-search&quot;&gt;SeaDataNet facet search&lt;/a&gt;" style="whiteSpace=wrap;html=1;fillColor=#33FFFF;" parent="1" vertex="1">
                    <mxGeometry x="-945.3799999999999" y="-32.32000000000002" width="137.74" height="64" as="geometry"/>
                </mxCell>
                <mxCell id="481" style="edgeStyle=orthogonalEdgeStyle;shape=connector;rounded=0;orthogonalLoop=1;jettySize=auto;html=1;labelBackgroundColor=default;strokeColor=#006EAF;strokeWidth=2;fontFamily=Helvetica;fontSize=11;fontColor=default;endArrow=classic;fillColor=#1ba1e2;entryX=0.5;entryY=0;entryDx=0;entryDy=0;" parent="1" source="482" target="507" edge="1">
                    <mxGeometry relative="1" as="geometry"/>
                </mxCell>
                <mxCell id="482" value="ACTION: navigate to&amp;nbsp;&lt;a href=&quot;https://vocab.seadatanet.org/p01-facet-search&quot;&gt;SeaDataNet facet search&lt;/a&gt;" style="whiteSpace=wrap;html=1;fillColor=#33FFFF;" parent="1" vertex="1">
                    <mxGeometry x="-390" y="-31.46" width="150" height="64" as="geometry"/>
                </mxCell>
                <mxCell id="483" style="edgeStyle=orthogonalEdgeStyle;rounded=0;orthogonalLoop=1;jettySize=auto;html=1;strokeWidth=2;" parent="1" source="484" target="470" edge="1">
                    <mxGeometry relative="1" as="geometry"/>
                </mxCell>
                <mxCell id="484" value="&lt;font style=&quot;font-size: 18px;&quot;&gt;measurementTypeID&lt;/font&gt;" style="whiteSpace=wrap;html=1;align=center;fillColor=#CDA2BE;" parent="1" vertex="1">
                    <mxGeometry x="-405" y="-480.28" width="180" height="55" as="geometry"/>
                </mxCell>
                <mxCell id="485" style="edgeStyle=orthogonalEdgeStyle;shape=connector;rounded=0;orthogonalLoop=1;jettySize=auto;html=1;entryX=0;entryY=0.5;entryDx=0;entryDy=0;labelBackgroundColor=default;strokeColor=default;strokeWidth=2;fontFamily=Helvetica;fontSize=11;fontColor=default;endArrow=classic;" parent="1" source="486" target="491" edge="1">
                    <mxGeometry relative="1" as="geometry"/>
                </mxCell>
                <mxCell id="486" value="&lt;font style=&quot;font-size: 18px;&quot;&gt;measurementUnitID&lt;/font&gt;" style="whiteSpace=wrap;html=1;align=center;fillColor=#CDA2BE;" parent="1" vertex="1">
                    <mxGeometry x="-125" y="-480.28" width="185.5" height="55" as="geometry"/>
                </mxCell>
                <mxCell id="487" style="edgeStyle=orthogonalEdgeStyle;rounded=0;orthogonalLoop=1;jettySize=auto;html=1;strokeWidth=2;exitX=0;exitY=0.5;exitDx=0;exitDy=0;entryX=1;entryY=0.5;entryDx=0;entryDy=0;" parent="1" source="612" target="494" edge="1">
                    <mxGeometry relative="1" as="geometry"/>
                </mxCell>
                <mxCell id="488" style="edgeStyle=orthogonalEdgeStyle;rounded=0;orthogonalLoop=1;jettySize=auto;html=1;entryX=1;entryY=0.5;entryDx=0;entryDy=0;strokeWidth=2;exitX=0;exitY=0.5;exitDx=0;exitDy=0;" parent="1" source="610" target="498" edge="1">
                    <mxGeometry relative="1" as="geometry"/>
                </mxCell>
                <mxCell id="489" style="edgeStyle=orthogonalEdgeStyle;shape=connector;rounded=0;orthogonalLoop=1;jettySize=auto;html=1;entryX=1;entryY=0.5;entryDx=0;entryDy=0;labelBackgroundColor=default;strokeColor=default;strokeWidth=2;fontFamily=Helvetica;fontSize=11;fontColor=default;endArrow=classic;" parent="1" source="490" target="519" edge="1">
                    <mxGeometry relative="1" as="geometry"/>
                </mxCell>
                <mxCell id="490" value="&lt;font style=&quot;font-size: 18px;&quot;&gt;measurementValueID&lt;/font&gt;" style="whiteSpace=wrap;html=1;align=center;fillColor=#CDA2BE;" parent="1" vertex="1">
                    <mxGeometry x="-668" y="-480.28" width="190" height="55" as="geometry"/>
                </mxCell>
                <mxCell id="491" value="NERC &lt;br&gt;P06 collection" style="ellipse;whiteSpace=wrap;html=1;fillColor=#CCE5FF;" parent="1" vertex="1">
                    <mxGeometry x="125" y="-492.13999999999993" width="123.5" height="78.72" as="geometry"/>
                </mxCell>
                <mxCell id="492" style="edgeStyle=orthogonalEdgeStyle;shape=connector;rounded=0;orthogonalLoop=1;jettySize=auto;html=1;entryX=1;entryY=0.5;entryDx=0;entryDy=0;labelBackgroundColor=default;strokeColor=default;strokeWidth=2;fontFamily=Helvetica;fontSize=11;fontColor=default;endArrow=classic;" parent="1" source="494" target="500" edge="1">
                    <mxGeometry relative="1" as="geometry"/>
                </mxCell>
                <mxCell id="493" style="edgeStyle=orthogonalEdgeStyle;shape=connector;rounded=0;orthogonalLoop=1;jettySize=auto;html=1;entryX=1;entryY=0.5;entryDx=0;entryDy=0;labelBackgroundColor=default;strokeColor=default;strokeWidth=2;align=center;verticalAlign=middle;fontFamily=Helvetica;fontSize=11;fontColor=default;endArrow=classic;" parent="1" source="494" target="653" edge="1">
                    <mxGeometry relative="1" as="geometry"/>
                </mxCell>
                <mxCell id="494" value="&lt;table&gt;&lt;thead&gt;&lt;tr&gt;&lt;td&gt;&lt;strong&gt;&lt;/strong&gt;&lt;br&gt;&lt;/td&gt;&lt;td&gt;Platform or Vessel Codes &amp;amp; Names&lt;br&gt;&lt;/td&gt;&lt;/tr&gt;&lt;/thead&gt;&lt;/table&gt;" style="whiteSpace=wrap;html=1;align=center;fillColor=#FFF2CC;" parent="1" vertex="1">
                    <mxGeometry x="-1745.13" y="-775.02" width="190" height="50" as="geometry"/>
                </mxCell>
                <mxCell id="495" style="edgeStyle=orthogonalEdgeStyle;shape=connector;rounded=0;orthogonalLoop=1;jettySize=auto;html=1;entryX=1;entryY=0.5;entryDx=0;entryDy=0;labelBackgroundColor=default;strokeColor=default;strokeWidth=2;fontFamily=Helvetica;fontSize=11;fontColor=default;endArrow=classic;" parent="1" source="496" target="501" edge="1">
                    <mxGeometry relative="1" as="geometry"/>
                </mxCell>
                <mxCell id="496" value="Sex" style="whiteSpace=wrap;html=1;align=center;fillColor=#FFF2CC;" parent="1" vertex="1">
                    <mxGeometry x="-1745.13" y="-625.0000000000001" width="190" height="50" as="geometry"/>
                </mxCell>
                <mxCell id="497" style="edgeStyle=orthogonalEdgeStyle;shape=connector;rounded=0;orthogonalLoop=1;jettySize=auto;html=1;entryX=1;entryY=0.5;entryDx=0;entryDy=0;labelBackgroundColor=default;strokeColor=default;strokeWidth=2;fontFamily=Helvetica;fontSize=11;fontColor=default;endArrow=classic;" parent="1" source="498" target="502" edge="1">
                    <mxGeometry relative="1" as="geometry"/>
                </mxCell>
                <mxCell id="498" value="Life stage" style="whiteSpace=wrap;html=1;align=center;fillColor=#FFF2CC;" parent="1" vertex="1">
                    <mxGeometry x="-1745.13" y="-551" width="190" height="50" as="geometry"/>
                </mxCell>
                <mxCell id="499" value="&lt;b&gt;Biological&lt;/b&gt; &lt;br&gt;(e.g. length, weight, abundance)" style="whiteSpace=wrap;html=1;align=center;fillColor=#97D077;" parent="1" vertex="1">
                    <mxGeometry x="194" y="-154.41" width="120" height="80" as="geometry"/>
                </mxCell>
                <mxCell id="500" value="C17&lt;br&gt;&lt;font style=&quot;font-size: 11px;&quot;&gt;(ICES names)&lt;/font&gt;" style="ellipse;whiteSpace=wrap;html=1;fillColor=#CCE5FF;" parent="1" vertex="1">
                    <mxGeometry x="-1880" y="-833.9100000000001" width="60" height="60" as="geometry"/>
                </mxCell>
                <mxCell id="501" value="S10" style="ellipse;whiteSpace=wrap;html=1;fillColor=#CCE5FF;" parent="1" vertex="1">
                    <mxGeometry x="-1880" y="-630" width="60" height="60" as="geometry"/>
                </mxCell>
                <mxCell id="502" value="S11" style="ellipse;whiteSpace=wrap;html=1;fillColor=#CCE5FF;" parent="1" vertex="1">
                    <mxGeometry x="-1880" y="-555.7" width="60" height="60" as="geometry"/>
                </mxCell>
                <mxCell id="503" value="&lt;font style=&quot;font-size: 24px;&quot;&gt;How to use these decision trees:&amp;nbsp;&lt;br&gt;&lt;span style=&quot;font-weight: normal;&quot;&gt;These trees are meant to help you identify the important elements within your measurement so that you find the best suited vocabulary code.&amp;nbsp;&lt;/span&gt;&lt;span style=&quot;font-weight: 400;&quot;&gt;For all branches related to measurementType, the tree should be&amp;nbsp;&lt;/span&gt;&lt;u style=&quot;border-color: var(--border-color); font-weight: 400;&quot;&gt;used in conjunction&lt;/u&gt;&lt;span style=&quot;font-weight: 400;&quot;&gt;&amp;nbsp;with the&amp;nbsp;&lt;/span&gt;&lt;a style=&quot;border-color: var(--border-color); font-weight: 400;&quot; href=&quot;https://vocab.seadatanet.org/p01-facet-search&quot;&gt;SeaDataNet facet search&lt;/a&gt;&lt;span style=&quot;font-weight: 400;&quot;&gt;&amp;nbsp;to obtain P01 codes.&lt;br&gt;&lt;/span&gt;&lt;span style=&quot;font-weight: normal;&quot;&gt;&lt;br&gt;You will notice other collections (e.g. S07) indicated as you follow along the branches. You do not need to go to these collections to identify sub-elements, these are provided to indicate where that &lt;i&gt;type&lt;/i&gt;&amp;nbsp;of information is found. Ultimately you should select a code that best captures your measurementType, measurementUnit, or measurementValue.&lt;br&gt;&lt;/span&gt;&lt;/font&gt;" style="text;html=1;strokeColor=none;fillColor=none;align=center;verticalAlign=middle;whiteSpace=wrap;rounded=0;fontStyle=1" parent="1" vertex="1">
                    <mxGeometry x="-980" y="-1130" width="1260" height="300" as="geometry"/>
                </mxCell>
                <mxCell id="504" value="Suggested tool/collection/action" style="text;html=1;strokeColor=none;fillColor=#CCE5FF;align=center;verticalAlign=middle;whiteSpace=wrap;rounded=0;" parent="1" vertex="1">
                    <mxGeometry x="-209.34" y="-815.84" width="116.99" height="40.82" as="geometry"/>
                </mxCell>
                <mxCell id="505" style="edgeStyle=orthogonalEdgeStyle;shape=connector;rounded=0;orthogonalLoop=1;jettySize=auto;html=1;entryX=0;entryY=0.5;entryDx=0;entryDy=0;labelBackgroundColor=default;strokeColor=#006EAF;strokeWidth=2;fontFamily=Helvetica;fontSize=11;fontColor=default;endArrow=classic;fillColor=#1ba1e2;dashed=1;" parent="1" source="507" target="557" edge="1">
                    <mxGeometry relative="1" as="geometry"/>
                </mxCell>
                <mxCell id="506" style="edgeStyle=orthogonalEdgeStyle;shape=connector;rounded=0;orthogonalLoop=1;jettySize=auto;html=1;labelBackgroundColor=default;strokeColor=#006EAF;strokeWidth=2;fontFamily=Helvetica;fontSize=11;fontColor=default;endArrow=classic;fillColor=#1ba1e2;" parent="1" source="507" target="624" edge="1">
                    <mxGeometry relative="1" as="geometry"/>
                </mxCell>
                <mxCell id="507" value="What is the chemical substance being measured&lt;i&gt;?&amp;nbsp;&lt;br&gt;&lt;/i&gt;" style="whiteSpace=wrap;html=1;fillColor=#F8CECC;" parent="1" vertex="1">
                    <mxGeometry x="-375" y="75.15000000000003" width="120" height="83.39" as="geometry"/>
                </mxCell>
                <mxCell id="508" style="edgeStyle=orthogonalEdgeStyle;shape=connector;rounded=0;orthogonalLoop=1;jettySize=auto;html=1;labelBackgroundColor=default;strokeColor=#9933FF;strokeWidth=2;fontFamily=Helvetica;fontSize=11;fontColor=default;endArrow=classic;" parent="1" source="509" target="578" edge="1">
                    <mxGeometry relative="1" as="geometry">
                        <mxPoint x="-875.7650000000001" y="199.68000000000004" as="targetPoint"/>
                    </mxGeometry>
                </mxCell>
                <mxCell id="509" value="What is the measurement property?" style="whiteSpace=wrap;html=1;fillColor=#F8CECC;" parent="1" vertex="1">
                    <mxGeometry x="-936.51" y="69.68000000000004" width="120" height="62" as="geometry"/>
                </mxCell>
                <mxCell id="510" style="edgeStyle=orthogonalEdgeStyle;shape=connector;rounded=0;orthogonalLoop=1;jettySize=auto;html=1;entryX=0.5;entryY=0;entryDx=0;entryDy=0;labelBackgroundColor=default;strokeColor=default;strokeWidth=2;fontFamily=Helvetica;fontSize=11;fontColor=default;endArrow=classic;" parent="1" source="511" target="515" edge="1">
                    <mxGeometry relative="1" as="geometry"/>
                </mxCell>
                <mxCell id="511" value="&lt;b&gt;&lt;font style=&quot;font-size: 18px;&quot;&gt;START&lt;/font&gt;&lt;/b&gt;" style="rhombus;whiteSpace=wrap;html=1;" parent="1" vertex="1">
                    <mxGeometry x="-375" y="-760" width="120" height="114.46" as="geometry"/>
                </mxCell>
                <mxCell id="512" style="edgeStyle=orthogonalEdgeStyle;shape=connector;rounded=0;orthogonalLoop=1;jettySize=auto;html=1;labelBackgroundColor=default;strokeColor=default;strokeWidth=2;fontFamily=Helvetica;fontSize=11;fontColor=default;endArrow=classic;" parent="1" source="515" target="484" edge="1">
                    <mxGeometry relative="1" as="geometry"/>
                </mxCell>
                <mxCell id="513" style="edgeStyle=orthogonalEdgeStyle;shape=connector;rounded=0;orthogonalLoop=1;jettySize=auto;html=1;labelBackgroundColor=default;strokeColor=default;strokeWidth=2;fontFamily=Helvetica;fontSize=11;fontColor=default;endArrow=classic;" parent="1" source="515" target="490" edge="1">
                    <mxGeometry relative="1" as="geometry"/>
                </mxCell>
                <mxCell id="514" style="edgeStyle=orthogonalEdgeStyle;shape=connector;rounded=0;orthogonalLoop=1;jettySize=auto;html=1;labelBackgroundColor=default;strokeColor=default;strokeWidth=2;fontFamily=Helvetica;fontSize=11;fontColor=default;endArrow=classic;" parent="1" source="515" target="486" edge="1">
                    <mxGeometry relative="1" as="geometry"/>
                </mxCell>
                <mxCell id="515" value="&lt;font style=&quot;font-size: 14px;&quot;&gt;Which identifier are you looking for?&lt;/font&gt;" style="whiteSpace=wrap;html=1;fillColor=#FFCCCC;fontStyle=1" parent="1" vertex="1">
                    <mxGeometry x="-385" y="-610" width="140" height="78.08" as="geometry"/>
                </mxCell>
                <mxCell id="516" style="edgeStyle=orthogonalEdgeStyle;shape=connector;rounded=0;orthogonalLoop=1;jettySize=auto;html=1;entryX=1;entryY=0.5;entryDx=0;entryDy=0;labelBackgroundColor=default;strokeColor=default;strokeWidth=2;fontFamily=Helvetica;fontSize=11;fontColor=default;endArrow=classic;" parent="1" source="519" target="612" edge="1">
                    <mxGeometry relative="1" as="geometry"/>
                </mxCell>
                <mxCell id="517" style="edgeStyle=orthogonalEdgeStyle;shape=connector;rounded=0;orthogonalLoop=1;jettySize=auto;html=1;entryX=1;entryY=0.5;entryDx=0;entryDy=0;labelBackgroundColor=default;strokeColor=default;strokeWidth=2;fontFamily=Helvetica;fontSize=11;fontColor=default;endArrow=classic;" parent="1" source="519" target="610" edge="1">
                    <mxGeometry relative="1" as="geometry"/>
                </mxCell>
                <mxCell id="518" style="edgeStyle=orthogonalEdgeStyle;shape=connector;rounded=0;orthogonalLoop=1;jettySize=auto;html=1;entryX=1;entryY=0.5;entryDx=0;entryDy=0;labelBackgroundColor=default;strokeColor=default;strokeWidth=2;align=center;verticalAlign=middle;fontFamily=Helvetica;fontSize=11;fontColor=default;endArrow=classic;" parent="1" source="519" target="637" edge="1">
                    <mxGeometry relative="1" as="geometry"/>
                </mxCell>
                <mxCell id="519" value="&lt;font style=&quot;font-size: 14px;&quot;&gt;What type of (non-numeric) value is it?&lt;/font&gt;" style="whiteSpace=wrap;html=1;fillColor=#FFCCCC;fontStyle=1" parent="1" vertex="1">
                    <mxGeometry x="-1000.38" y="-494.39" width="192.74" height="82.78" as="geometry"/>
                </mxCell>
                <mxCell id="520" style="edgeStyle=orthogonalEdgeStyle;shape=connector;rounded=0;orthogonalLoop=1;jettySize=auto;html=1;labelBackgroundColor=default;strokeColor=#006EAF;strokeWidth=2;fontFamily=Helvetica;fontSize=11;fontColor=default;endArrow=classic;fillColor=#1ba1e2;" parent="1" source="521" target="528" edge="1">
                    <mxGeometry relative="1" as="geometry"/>
                </mxCell>
                <mxCell id="521" value="What is the measurement property?&amp;nbsp;" style="whiteSpace=wrap;html=1;fillColor=#F8CECC;" parent="1" vertex="1">
                    <mxGeometry x="-375" y="310.11" width="120" height="82" as="geometry"/>
                </mxCell>
                <mxCell id="522" value="No" style="text;html=1;align=center;verticalAlign=middle;resizable=0;points=[];autosize=1;strokeColor=none;fillColor=none;" parent="1" vertex="1">
                    <mxGeometry x="-215" y="477.71999999999997" width="40" height="30" as="geometry"/>
                </mxCell>
                <mxCell id="523" style="edgeStyle=orthogonalEdgeStyle;shape=connector;rounded=0;orthogonalLoop=1;jettySize=auto;html=1;entryX=0;entryY=0.5;entryDx=0;entryDy=0;labelBackgroundColor=default;strokeColor=#006EAF;strokeWidth=2;fontFamily=Helvetica;fontSize=11;fontColor=default;endArrow=classic;fillColor=#1ba1e2;dashed=1;" parent="1" source="524" target="556" edge="1">
                    <mxGeometry relative="1" as="geometry">
                        <mxPoint x="-323.1299999999877" y="274.00000000000045" as="targetPoint"/>
                    </mxGeometry>
                </mxCell>
                <mxCell id="524" value="&lt;span style=&quot;color: rgb(0, 0, 0); font-family: Helvetica; font-size: 12px; font-style: normal; font-variant-ligatures: normal; font-variant-caps: normal; font-weight: 400; letter-spacing: normal; orphans: 2; text-indent: 0px; text-transform: none; widows: 2; word-spacing: 0px; -webkit-text-stroke-width: 0px; background-color: rgb(248, 249, 250); text-decoration-thickness: initial; text-decoration-style: initial; text-decoration-color: initial; float: none; display: inline !important;&quot;&gt;Yes&lt;br&gt;&lt;/span&gt;" style="text;whiteSpace=wrap;html=1;align=center;" parent="1" vertex="1">
                    <mxGeometry x="-215" y="428.63999999999993" width="40" height="30.75" as="geometry"/>
                </mxCell>
                <mxCell id="525" style="edgeStyle=orthogonalEdgeStyle;shape=connector;rounded=0;orthogonalLoop=1;jettySize=auto;html=1;entryX=0;entryY=0.5;entryDx=0;entryDy=0;labelBackgroundColor=default;strokeColor=#006EAF;strokeWidth=2;fontFamily=Helvetica;fontSize=11;fontColor=default;endArrow=classic;fillColor=#1ba1e2;dashed=1;" parent="1" source="528" target="524" edge="1">
                    <mxGeometry relative="1" as="geometry"/>
                </mxCell>
                <mxCell id="526" style="edgeStyle=orthogonalEdgeStyle;shape=connector;rounded=0;orthogonalLoop=1;jettySize=auto;html=1;labelBackgroundColor=default;strokeColor=#006EAF;strokeWidth=2;fontFamily=Helvetica;fontSize=11;fontColor=default;endArrow=classic;fillColor=#1ba1e2;dashed=1;" parent="1" source="528" target="522" edge="1">
                    <mxGeometry relative="1" as="geometry"/>
                </mxCell>
                <mxCell id="527" style="edgeStyle=orthogonalEdgeStyle;shape=connector;rounded=0;orthogonalLoop=1;jettySize=auto;html=1;labelBackgroundColor=default;strokeColor=#006EAF;strokeWidth=2;fontFamily=Helvetica;fontSize=11;fontColor=default;endArrow=classic;fillColor=#1ba1e2;" parent="1" source="528" target="625" edge="1">
                    <mxGeometry relative="1" as="geometry"/>
                </mxCell>
                <mxCell id="528" value="&lt;div style=&quot;border-color: var(--border-color);&quot;&gt;Is it a statistically derived&amp;nbsp;&lt;/div&gt;parameter?" style="ellipse;whiteSpace=wrap;html=1;fillColor=#FFFFCC;" parent="1" vertex="1">
                    <mxGeometry x="-368.74" y="428.63999999999993" width="108.49" height="80" as="geometry"/>
                </mxCell>
                <mxCell id="529" style="edgeStyle=orthogonalEdgeStyle;shape=connector;rounded=0;orthogonalLoop=1;jettySize=auto;html=1;entryX=0;entryY=0.5;entryDx=0;entryDy=0;labelBackgroundColor=default;strokeColor=#006EAF;strokeWidth=2;fontFamily=Helvetica;fontSize=11;fontColor=default;endArrow=classic;fillColor=#1ba1e2;dashed=1;" parent="1" source="531" target="558" edge="1">
                    <mxGeometry relative="1" as="geometry"/>
                </mxCell>
                <mxCell id="530" style="edgeStyle=orthogonalEdgeStyle;shape=connector;rounded=0;orthogonalLoop=1;jettySize=auto;html=1;entryX=0.5;entryY=0;entryDx=0;entryDy=0;labelBackgroundColor=default;strokeColor=#006EAF;strokeWidth=2;fontFamily=Helvetica;fontSize=11;fontColor=default;endArrow=classic;fillColor=#1ba1e2;" parent="1" source="531" target="615" edge="1">
                    <mxGeometry relative="1" as="geometry"/>
                </mxCell>
                <mxCell id="531" value="What's the measurement-matrix-relationship?" style="whiteSpace=wrap;html=1;fillColor=#F8CECC;" parent="1" vertex="1">
                    <mxGeometry x="-385" y="762.1099999999999" width="150" height="70" as="geometry"/>
                </mxCell>
                <mxCell id="532" style="edgeStyle=orthogonalEdgeStyle;shape=connector;rounded=0;orthogonalLoop=1;jettySize=auto;html=1;labelBackgroundColor=default;strokeColor=#006EAF;strokeWidth=2;fontFamily=Helvetica;fontSize=11;fontColor=default;endArrow=classic;fillColor=#1ba1e2;dashed=1;" parent="1" source="534" target="536" edge="1">
                    <mxGeometry relative="1" as="geometry"/>
                </mxCell>
                <mxCell id="533" style="edgeStyle=orthogonalEdgeStyle;shape=connector;rounded=0;orthogonalLoop=1;jettySize=auto;html=1;labelBackgroundColor=default;strokeColor=#006EAF;strokeWidth=2;fontFamily=Helvetica;fontSize=11;fontColor=default;endArrow=classic;fillColor=#1ba1e2;" parent="1" source="534" target="531" edge="1">
                    <mxGeometry relative="1" as="geometry"/>
                </mxCell>
                <mxCell id="534" value="What is the matrix?" style="whiteSpace=wrap;html=1;fillColor=#FFCCCC;" parent="1" vertex="1">
                    <mxGeometry x="-375" y="653.52" width="130" height="73.39" as="geometry"/>
                </mxCell>
                <mxCell id="535" style="edgeStyle=orthogonalEdgeStyle;shape=connector;rounded=0;orthogonalLoop=1;jettySize=auto;html=1;labelBackgroundColor=default;strokeColor=#006EAF;strokeWidth=2;fontFamily=Helvetica;fontSize=11;fontColor=default;endArrow=classic;fillColor=#1ba1e2;dashed=1;" parent="1" source="536" target="539" edge="1">
                    <mxGeometry relative="1" as="geometry"/>
                </mxCell>
                <mxCell id="536" value="S26 or for more specific ranges see:" style="ellipse;whiteSpace=wrap;html=1;aspect=fixed;fillColor=#FFFFCC;" parent="1" vertex="1">
                    <mxGeometry x="-211" y="652.0799999999999" width="76.26" height="76.26" as="geometry"/>
                </mxCell>
                <mxCell id="537" value="&lt;div&gt;Sphere sub-group &lt;/div&gt;&lt;div&gt;S22&lt;br&gt;&lt;/div&gt;" style="text;html=1;strokeColor=none;fillColor=none;align=center;verticalAlign=middle;whiteSpace=wrap;rounded=0;" parent="1" vertex="1">
                    <mxGeometry x="3.009999999999984" y="641.29" width="100" height="45" as="geometry"/>
                </mxCell>
                <mxCell id="538" style="edgeStyle=orthogonalEdgeStyle;shape=connector;rounded=0;orthogonalLoop=1;jettySize=auto;html=1;labelBackgroundColor=default;strokeColor=#006EAF;strokeWidth=2;fontFamily=Helvetica;fontSize=11;fontColor=default;endArrow=classic;fillColor=#1ba1e2;dashed=1;" parent="1" source="539" target="540" edge="1">
                    <mxGeometry relative="1" as="geometry"/>
                </mxCell>
                <mxCell id="539" value="&lt;div&gt;Phase&lt;/div&gt;&lt;div&gt;S23&lt;br&gt;&lt;/div&gt;" style="text;html=1;strokeColor=none;fillColor=none;align=center;verticalAlign=middle;whiteSpace=wrap;rounded=0;" parent="1" vertex="1">
                    <mxGeometry x="-91.25999999999999" y="711.8599999999997" width="50" height="32.5" as="geometry"/>
                </mxCell>
                <mxCell id="540" value="&lt;div&gt;Phase sub-group&lt;br&gt;&lt;/div&gt;&lt;div&gt;S24&lt;br&gt;&lt;/div&gt;" style="text;html=1;strokeColor=none;fillColor=none;align=center;verticalAlign=middle;whiteSpace=wrap;rounded=0;" parent="1" vertex="1">
                    <mxGeometry x="6.509999999999984" y="705.6099999999999" width="96.5" height="45" as="geometry"/>
                </mxCell>
                <mxCell id="541" value="" style="edgeStyle=orthogonalEdgeStyle;rounded=0;orthogonalLoop=1;jettySize=auto;html=1;strokeColor=#9933FF;strokeWidth=2;entryX=0.5;entryY=0;entryDx=0;entryDy=0;" parent="1" source="470" target="473" edge="1">
                    <mxGeometry relative="1" as="geometry">
                        <mxPoint x="-1120" y="-180" as="targetPoint"/>
                    </mxGeometry>
                </mxCell>
                <mxCell id="542" style="edgeStyle=orthogonalEdgeStyle;shape=connector;rounded=0;orthogonalLoop=1;jettySize=auto;html=1;labelBackgroundColor=default;strokeColor=#9933FF;strokeWidth=2;fontFamily=Helvetica;fontSize=11;fontColor=default;endArrow=classic;exitX=0;exitY=0.5;exitDx=0;exitDy=0;" parent="1" source="544" target="547" edge="1">
                    <mxGeometry relative="1" as="geometry">
                        <mxPoint x="-998.26" y="698.8399999999999" as="targetPoint"/>
                    </mxGeometry>
                </mxCell>
                <mxCell id="543" value="" style="edgeStyle=orthogonalEdgeStyle;shape=connector;rounded=0;orthogonalLoop=1;jettySize=auto;html=1;labelBackgroundColor=default;strokeColor=#9933FF;strokeWidth=2;fontFamily=Helvetica;fontSize=11;fontColor=default;endArrow=classic;exitX=1;exitY=0.5;exitDx=0;exitDy=0;" parent="1" source="544" target="549" edge="1">
                    <mxGeometry relative="1" as="geometry"/>
                </mxCell>
                <mxCell id="544" value="What is the physical entity being measured?" style="whiteSpace=wrap;html=1;fillColor=#F8CECC;" parent="1" vertex="1">
                    <mxGeometry x="-936.51" y="371.37" width="120" height="84.93" as="geometry"/>
                </mxCell>
                <mxCell id="545" style="edgeStyle=orthogonalEdgeStyle;shape=connector;rounded=0;orthogonalLoop=1;jettySize=auto;html=1;entryX=1;entryY=0.5;entryDx=0;entryDy=0;labelBackgroundColor=default;strokeColor=#9933FF;strokeWidth=2;fontFamily=Helvetica;fontSize=11;fontColor=default;endArrow=classic;dashed=1;" parent="1" source="547" target="590" edge="1">
                    <mxGeometry relative="1" as="geometry"/>
                </mxCell>
                <mxCell id="546" style="edgeStyle=orthogonalEdgeStyle;shape=connector;rounded=0;orthogonalLoop=1;jettySize=auto;html=1;entryX=0;entryY=0.5;entryDx=0;entryDy=0;labelBackgroundColor=default;strokeColor=#9933FF;strokeWidth=2;fontFamily=Helvetica;fontSize=11;fontColor=default;endArrow=none;endFill=0;" parent="1" source="547" target="601" edge="1">
                    <mxGeometry relative="1" as="geometry"/>
                </mxCell>
                <mxCell id="547" value="The environmental matrix?" style="whiteSpace=wrap;html=1;fillColor=#FFFFCC;" parent="1" vertex="1">
                    <mxGeometry x="-1046.5100000000002" y="494.90999999999985" width="108.25" height="69" as="geometry"/>
                </mxCell>
                <mxCell id="548" style="edgeStyle=orthogonalEdgeStyle;shape=connector;rounded=0;orthogonalLoop=1;jettySize=auto;html=1;labelBackgroundColor=default;strokeColor=#9933FF;strokeWidth=2;fontFamily=Helvetica;fontSize=11;fontColor=default;endArrow=classic;entryX=0;entryY=0.5;entryDx=0;entryDy=0;dashed=1;" parent="1" source="549" target="598" edge="1">
                    <mxGeometry relative="1" as="geometry">
                        <mxPoint x="-627.01" y="532.5399999999997" as="targetPoint"/>
                    </mxGeometry>
                </mxCell>
                <mxCell id="549" value="Other physical entity&lt;br&gt;(S29)" style="whiteSpace=wrap;html=1;fillColor=#FFFFCC;" parent="1" vertex="1">
                    <mxGeometry x="-797.01" y="497.53999999999985" width="109.99" height="70" as="geometry"/>
                </mxCell>
                <mxCell id="550" value="ACTION: navigate to &lt;a href=&quot;https://vocab.seadatanet.org/p01-facet-search&quot;&gt;SeaDataNet facet search&lt;/a&gt;" style="whiteSpace=wrap;html=1;fillColor=#66FFFF;" parent="1" vertex="1">
                    <mxGeometry x="194" y="-31.869999999999976" width="120" height="60" as="geometry"/>
                </mxCell>
                <mxCell id="551" style="edgeStyle=orthogonalEdgeStyle;shape=connector;rounded=0;orthogonalLoop=1;jettySize=auto;html=1;labelBackgroundColor=default;strokeColor=#005700;strokeWidth=2;fontFamily=Helvetica;fontSize=11;fontColor=default;endArrow=none;fillColor=#008a00;endFill=0;entryX=0.5;entryY=0;entryDx=0;entryDy=0;" parent="1" source="552" target="616" edge="1">
                    <mxGeometry relative="1" as="geometry"/>
                </mxCell>
                <mxCell id="552" value="&lt;span style=&quot;font-family: Verdana;&quot;&gt;Biological&lt;br&gt;entity specified elsewhere &lt;br&gt;[&lt;i&gt;with &lt;/i&gt;sub-component]&lt;br&gt;&lt;/span&gt;" style="ellipse;whiteSpace=wrap;html=1;align=center;dashed=1;fillColor=#CCFFCC;" parent="1" vertex="1">
                    <mxGeometry x="275.99" y="213.12999999999997" width="114.01" height="95" as="geometry"/>
                </mxCell>
                <mxCell id="553" value="&lt;div&gt;There are only 3 matrices relevant for OBIS biological data&lt;/div&gt;&lt;div&gt;&lt;ul&gt;&lt;li&gt;Water body&lt;/li&gt;&lt;li&gt;Bed&lt;/li&gt;&lt;li&gt;Sediment&lt;/li&gt;&lt;/ul&gt;&lt;/div&gt;&lt;div&gt;Look in S26 or S21 for more details&lt;/div&gt;" style="text;html=1;strokeColor=none;fillColor=none;align=left;verticalAlign=middle;whiteSpace=wrap;rounded=0;" parent="1" vertex="1">
                    <mxGeometry x="375.51" y="962.59" width="260" height="110" as="geometry"/>
                </mxCell>
                <mxCell id="554" style="edgeStyle=orthogonalEdgeStyle;rounded=0;orthogonalLoop=1;jettySize=auto;html=1;exitX=0.5;exitY=1;exitDx=0;exitDy=0;strokeWidth=2;strokeColor=#005700;fillColor=#008a00;" parent="1" source="459" target="552" edge="1">
                    <mxGeometry relative="1" as="geometry">
                        <mxPoint x="268" y="166.13000000000002" as="sourcePoint"/>
                        <mxPoint x="201" y="223.12999999999997" as="targetPoint"/>
                    </mxGeometry>
                </mxCell>
                <mxCell id="555" value="Terms in S06 if interested" style="ellipse;whiteSpace=wrap;html=1;fillColor=#FFFFCC;" parent="1" vertex="1">
                    <mxGeometry x="458.74" y="672.99" width="69.01" height="60" as="geometry"/>
                </mxCell>
                <mxCell id="556" value="Terms in S07 if interested" style="ellipse;whiteSpace=wrap;html=1;fillColor=#FFFFCC;" parent="1" vertex="1">
                    <mxGeometry x="-145" y="414.00999999999993" width="70" height="60" as="geometry"/>
                </mxCell>
                <mxCell id="557" value="Terms in S27 if interested" style="ellipse;whiteSpace=wrap;html=1;fillColor=#FFFFCC;" parent="1" vertex="1">
                    <mxGeometry x="-210" y="86.84000000000003" width="70" height="60" as="geometry"/>
                </mxCell>
                <mxCell id="558" value="Terms in S02 if interested" style="ellipse;whiteSpace=wrap;html=1;fillColor=#FFFFCC;" parent="1" vertex="1">
                    <mxGeometry x="-193.49" y="766.6499999999999" width="70" height="60" as="geometry"/>
                </mxCell>
                <mxCell id="559" value="Terms in S02 if interested" style="ellipse;whiteSpace=wrap;html=1;fillColor=#FFFFCC;" parent="1" vertex="1">
                    <mxGeometry x="391.49" y="1389.0599999999997" width="70" height="60" as="geometry"/>
                </mxCell>
                <mxCell id="560" value="" style="edgeStyle=orthogonalEdgeStyle;shape=connector;rounded=0;orthogonalLoop=1;jettySize=auto;html=1;labelBackgroundColor=default;strokeColor=#006EAF;strokeWidth=2;fontFamily=Helvetica;fontSize=11;fontColor=default;endArrow=classic;fillColor=#1ba1e2;dashed=1;" parent="1" source="536" target="562" edge="1">
                    <mxGeometry relative="1" as="geometry">
                        <mxPoint x="-146.26" y="689.8599999999999" as="sourcePoint"/>
                        <mxPoint x="-32.26" y="658.8599999999999" as="targetPoint"/>
                    </mxGeometry>
                </mxCell>
                <mxCell id="561" style="edgeStyle=orthogonalEdgeStyle;shape=connector;rounded=0;orthogonalLoop=1;jettySize=auto;html=1;entryX=0;entryY=0.5;entryDx=0;entryDy=0;labelBackgroundColor=default;strokeColor=#006EAF;strokeWidth=2;fontFamily=Helvetica;fontSize=11;fontColor=default;endArrow=classic;fillColor=#1ba1e2;dashed=1;" parent="1" source="562" target="537" edge="1">
                    <mxGeometry relative="1" as="geometry"/>
                </mxCell>
                <mxCell id="562" value="&lt;div&gt;Sphere &lt;/div&gt;&lt;div&gt;S21&lt;br&gt;&lt;/div&gt;" style="text;html=1;strokeColor=none;fillColor=none;align=center;verticalAlign=middle;whiteSpace=wrap;rounded=0;" parent="1" vertex="1">
                    <mxGeometry x="-91.25999999999999" y="648.79" width="50" height="30" as="geometry"/>
                </mxCell>
                <mxCell id="563" style="edgeStyle=orthogonalEdgeStyle;shape=connector;rounded=0;orthogonalLoop=1;jettySize=auto;html=1;entryX=0;entryY=0.5;entryDx=0;entryDy=0;labelBackgroundColor=default;strokeColor=#006EAF;strokeWidth=2;fontFamily=Helvetica;fontSize=11;fontColor=default;endArrow=classic;fillColor=#008a00;dashed=1;" parent="1" source="567" target="569" edge="1">
                    <mxGeometry relative="1" as="geometry">
                        <Array as="points">
                            <mxPoint x="-126.99000000000001" y="1031.8199999999997"/>
                            <mxPoint x="-126.99000000000001" y="1002.8199999999999"/>
                        </Array>
                    </mxGeometry>
                </mxCell>
                <mxCell id="564" style="edgeStyle=orthogonalEdgeStyle;shape=connector;rounded=0;orthogonalLoop=1;jettySize=auto;html=1;labelBackgroundColor=default;strokeColor=#006EAF;strokeWidth=2;fontFamily=Helvetica;fontSize=11;fontColor=default;endArrow=classic;fillColor=#008a00;dashed=1;" parent="1" source="567" target="570" edge="1">
                    <mxGeometry relative="1" as="geometry"/>
                </mxCell>
                <mxCell id="565" style="edgeStyle=orthogonalEdgeStyle;shape=connector;rounded=0;orthogonalLoop=1;jettySize=auto;html=1;labelBackgroundColor=default;strokeColor=#006EAF;strokeWidth=2;fontFamily=Helvetica;fontSize=11;fontColor=default;endArrow=classic;fillColor=#008a00;dashed=1;" parent="1" source="567" target="571" edge="1">
                    <mxGeometry relative="1" as="geometry">
                        <Array as="points">
                            <mxPoint x="-126.99000000000001" y="1031.8199999999997"/>
                            <mxPoint x="-126.99000000000001" y="1060.8199999999997"/>
                        </Array>
                    </mxGeometry>
                </mxCell>
                <mxCell id="566" style="edgeStyle=orthogonalEdgeStyle;shape=connector;rounded=0;orthogonalLoop=1;jettySize=auto;html=1;entryX=0.5;entryY=0;entryDx=0;entryDy=0;labelBackgroundColor=default;strokeColor=#006EAF;strokeWidth=2;fontFamily=Helvetica;fontSize=11;fontColor=default;endArrow=classic;fillColor=#1ba1e2;" parent="1" source="567" target="627" edge="1">
                    <mxGeometry relative="1" as="geometry"/>
                </mxCell>
                <mxCell id="567" value="Were any methods used to obtain the measurement?" style="whiteSpace=wrap;html=1;fillColor=#FFFFCC;" parent="1" vertex="1">
                    <mxGeometry x="-374.995" y="992.4599999999998" width="130" height="78.5" as="geometry"/>
                </mxCell>
                <mxCell id="568" value="See S26 &lt;br&gt;or:" style="ellipse;whiteSpace=wrap;html=1;aspect=fixed;fillColor=#FFFFCC;" parent="1" vertex="1">
                    <mxGeometry x="-206.99" y="1003.96" width="55.75" height="55.75" as="geometry"/>
                </mxCell>
                <mxCell id="569" value="&lt;div&gt;S03 for Sample preparation&lt;/div&gt;" style="text;html=1;strokeColor=none;fillColor=none;align=left;verticalAlign=middle;whiteSpace=wrap;rounded=0;" parent="1" vertex="1">
                    <mxGeometry x="-86.99000000000001" y="987.77" width="159.01" height="30" as="geometry"/>
                </mxCell>
                <mxCell id="570" value="&lt;div&gt;S04 for Analytical methods&lt;/div&gt;" style="text;html=1;strokeColor=none;fillColor=none;align=left;verticalAlign=middle;whiteSpace=wrap;rounded=0;" parent="1" vertex="1">
                    <mxGeometry x="-86.99000000000001" y="1016.8199999999999" width="160" height="30" as="geometry"/>
                </mxCell>
                <mxCell id="571" value="&lt;div&gt;S05 for Data processing methods&lt;/div&gt;" style="text;html=1;strokeColor=none;fillColor=none;align=left;verticalAlign=middle;whiteSpace=wrap;rounded=0;" parent="1" vertex="1">
                    <mxGeometry x="-86.99000000000001" y="1045.6499999999999" width="190" height="30" as="geometry"/>
                </mxCell>
                <mxCell id="572" value="No" style="text;html=1;align=center;verticalAlign=middle;resizable=0;points=[];autosize=1;strokeColor=none;fillColor=none;" parent="1" vertex="1">
                    <mxGeometry x="-776.27" y="213.38999999999996" width="40" height="30" as="geometry"/>
                </mxCell>
                <mxCell id="573" style="edgeStyle=orthogonalEdgeStyle;shape=connector;rounded=0;orthogonalLoop=1;jettySize=auto;html=1;entryX=0;entryY=0.5;entryDx=0;entryDy=0;labelBackgroundColor=default;strokeColor=#9933FF;strokeWidth=2;fontFamily=Helvetica;fontSize=11;fontColor=default;endArrow=classic;fillColor=#1ba1e2;dashed=1;" parent="1" source="574" target="579" edge="1">
                    <mxGeometry relative="1" as="geometry">
                        <mxPoint x="-1240.6499999999876" y="3.3600000000004986" as="targetPoint"/>
                    </mxGeometry>
                </mxCell>
                <mxCell id="574" value="&lt;span style=&quot;color: rgb(0, 0, 0); font-family: Helvetica; font-size: 12px; font-style: normal; font-variant-ligatures: normal; font-variant-caps: normal; font-weight: 400; letter-spacing: normal; orphans: 2; text-indent: 0px; text-transform: none; widows: 2; word-spacing: 0px; -webkit-text-stroke-width: 0px; background-color: rgb(248, 249, 250); text-decoration-thickness: initial; text-decoration-style: initial; text-decoration-color: initial; float: none; display: inline !important;&quot;&gt;Yes&lt;br&gt;&lt;/span&gt;" style="text;whiteSpace=wrap;html=1;align=center;" parent="1" vertex="1">
                    <mxGeometry x="-776.27" y="164.31000000000003" width="40" height="30.75" as="geometry"/>
                </mxCell>
                <mxCell id="575" style="edgeStyle=orthogonalEdgeStyle;shape=connector;rounded=0;orthogonalLoop=1;jettySize=auto;html=1;entryX=0;entryY=0.5;entryDx=0;entryDy=0;labelBackgroundColor=default;strokeColor=#9933FF;strokeWidth=2;fontFamily=Helvetica;fontSize=11;fontColor=default;endArrow=classic;fillColor=#1ba1e2;dashed=1;" parent="1" source="578" target="574" edge="1">
                    <mxGeometry relative="1" as="geometry"/>
                </mxCell>
                <mxCell id="576" style="edgeStyle=orthogonalEdgeStyle;shape=connector;rounded=0;orthogonalLoop=1;jettySize=auto;html=1;labelBackgroundColor=default;strokeColor=#9933FF;strokeWidth=2;fontFamily=Helvetica;fontSize=11;fontColor=default;endArrow=classic;fillColor=#1ba1e2;dashed=1;" parent="1" source="578" target="572" edge="1">
                    <mxGeometry relative="1" as="geometry"/>
                </mxCell>
                <mxCell id="577" style="edgeStyle=orthogonalEdgeStyle;shape=connector;rounded=0;orthogonalLoop=1;jettySize=auto;html=1;entryX=0.5;entryY=0;entryDx=0;entryDy=0;labelBackgroundColor=default;strokeColor=#9933FF;strokeWidth=2;fontFamily=Helvetica;fontSize=11;fontColor=default;endArrow=classic;" parent="1" source="578" target="628" edge="1">
                    <mxGeometry relative="1" as="geometry"/>
                </mxCell>
                <mxCell id="578" value="&lt;div style=&quot;border-color: var(--border-color);&quot;&gt;Is it a statistically derived&amp;nbsp;&lt;/div&gt;parameter?" style="ellipse;whiteSpace=wrap;html=1;fillColor=#FFFFCC;" parent="1" vertex="1">
                    <mxGeometry x="-930.7549999999999" y="164.31000000000003" width="108.49" height="80" as="geometry"/>
                </mxCell>
                <mxCell id="579" value="Terms in S07 if interested" style="ellipse;whiteSpace=wrap;html=1;fillColor=#FFFFCC;" parent="1" vertex="1">
                    <mxGeometry x="-706.27" y="149.68000000000004" width="70" height="60" as="geometry"/>
                </mxCell>
                <mxCell id="580" style="edgeStyle=orthogonalEdgeStyle;shape=connector;rounded=0;orthogonalLoop=1;jettySize=auto;html=1;entryX=0;entryY=0.5;entryDx=0;entryDy=0;labelBackgroundColor=default;strokeColor=#9933FF;strokeWidth=2;fontFamily=Helvetica;fontSize=11;fontColor=default;endArrow=classic;fillColor=#008a00;dashed=1;" parent="1" source="584" edge="1">
                    <mxGeometry relative="1" as="geometry">
                        <Array as="points">
                            <mxPoint x="-709" y="952.35"/>
                            <mxPoint x="-709" y="923.3499999999999"/>
                        </Array>
                        <mxPoint x="-668.9999999999998" y="923.3" as="targetPoint"/>
                    </mxGeometry>
                </mxCell>
                <mxCell id="581" style="edgeStyle=orthogonalEdgeStyle;shape=connector;rounded=0;orthogonalLoop=1;jettySize=auto;html=1;labelBackgroundColor=default;strokeColor=#9933FF;strokeWidth=2;fontFamily=Helvetica;fontSize=11;fontColor=default;endArrow=classic;fillColor=#008a00;dashed=1;" parent="1" source="584" target="587" edge="1">
                    <mxGeometry relative="1" as="geometry"/>
                </mxCell>
                <mxCell id="582" style="edgeStyle=orthogonalEdgeStyle;shape=connector;rounded=0;orthogonalLoop=1;jettySize=auto;html=1;labelBackgroundColor=default;strokeColor=#9933FF;strokeWidth=2;fontFamily=Helvetica;fontSize=11;fontColor=default;endArrow=classic;fillColor=#008a00;dashed=1;" parent="1" source="584" target="588" edge="1">
                    <mxGeometry relative="1" as="geometry">
                        <Array as="points">
                            <mxPoint x="-709" y="952.35"/>
                            <mxPoint x="-709" y="981.35"/>
                        </Array>
                    </mxGeometry>
                </mxCell>
                <mxCell id="583" style="edgeStyle=orthogonalEdgeStyle;shape=connector;rounded=0;orthogonalLoop=1;jettySize=auto;html=1;entryX=0;entryY=0.5;entryDx=0;entryDy=0;labelBackgroundColor=default;strokeColor=#9933FF;strokeWidth=2;align=center;verticalAlign=middle;fontFamily=Helvetica;fontSize=11;fontColor=default;endArrow=classic;" parent="1" source="584" target="631" edge="1">
                    <mxGeometry relative="1" as="geometry">
                        <Array as="points">
                            <mxPoint x="-870" y="1550"/>
                        </Array>
                    </mxGeometry>
                </mxCell>
                <mxCell id="584" value="Were any methods used to obtain the measurement?" style="whiteSpace=wrap;html=1;fillColor=#FFFFCC;" parent="1" vertex="1">
                    <mxGeometry x="-934.51" y="913.9899999999998" width="130" height="78.5" as="geometry"/>
                </mxCell>
                <mxCell id="585" value="See S26 &lt;br&gt;or:" style="ellipse;whiteSpace=wrap;html=1;aspect=fixed;fillColor=#FFFFCC;" parent="1" vertex="1">
                    <mxGeometry x="-788" y="924.4899999999998" width="55.75" height="55.75" as="geometry"/>
                </mxCell>
                <mxCell id="586" value="&lt;div&gt;S03 for Sample preparation&lt;/div&gt;" style="text;html=1;strokeColor=none;fillColor=none;align=left;verticalAlign=middle;whiteSpace=wrap;rounded=0;" parent="1" vertex="1">
                    <mxGeometry x="-668.0000000000002" y="907.2999999999997" width="159.01" height="30" as="geometry"/>
                </mxCell>
                <mxCell id="587" value="&lt;div&gt;S04 for Analytical methods&lt;/div&gt;" style="text;html=1;strokeColor=none;fillColor=none;align=left;verticalAlign=middle;whiteSpace=wrap;rounded=0;" parent="1" vertex="1">
                    <mxGeometry x="-668.0000000000002" y="937.3499999999999" width="160" height="30" as="geometry"/>
                </mxCell>
                <mxCell id="588" value="&lt;div&gt;S05 for Data processing methods&lt;/div&gt;" style="text;html=1;strokeColor=none;fillColor=none;align=left;verticalAlign=middle;whiteSpace=wrap;rounded=0;" parent="1" vertex="1">
                    <mxGeometry x="-668.0000000000002" y="966.18" width="190" height="30" as="geometry"/>
                </mxCell>
                <mxCell id="589" style="edgeStyle=orthogonalEdgeStyle;shape=connector;rounded=0;orthogonalLoop=1;jettySize=auto;html=1;labelBackgroundColor=default;strokeColor=#9933FF;strokeWidth=2;fontFamily=Helvetica;fontSize=11;fontColor=default;endArrow=classic;fillColor=#1ba1e2;entryX=1;entryY=0.5;entryDx=0;entryDy=0;dashed=1;" parent="1" source="590" target="593" edge="1">
                    <mxGeometry relative="1" as="geometry"/>
                </mxCell>
                <mxCell id="590" value="S26 or for more specific ranges see:" style="ellipse;whiteSpace=wrap;html=1;aspect=fixed;fillColor=#FFFFCC;" parent="1" vertex="1">
                    <mxGeometry x="-1193.51" y="491.27999999999986" width="76.26" height="76.26" as="geometry"/>
                </mxCell>
                <mxCell id="591" value="&lt;div&gt;Sphere sub-group &lt;/div&gt;&lt;div&gt;S22&lt;br&gt;&lt;/div&gt;" style="text;html=1;strokeColor=none;fillColor=none;align=center;verticalAlign=middle;whiteSpace=wrap;rounded=0;" parent="1" vertex="1">
                    <mxGeometry x="-1424.01" y="487.65999999999985" width="100" height="45" as="geometry"/>
                </mxCell>
                <mxCell id="592" style="edgeStyle=orthogonalEdgeStyle;shape=connector;rounded=0;orthogonalLoop=1;jettySize=auto;html=1;labelBackgroundColor=default;strokeColor=#9933FF;strokeWidth=2;fontFamily=Helvetica;fontSize=11;fontColor=default;endArrow=classic;fillColor=#1ba1e2;dashed=1;" parent="1" source="593" target="594" edge="1">
                    <mxGeometry relative="1" as="geometry"/>
                </mxCell>
                <mxCell id="593" value="&lt;div&gt;Phase&lt;/div&gt;&lt;div&gt;S23&lt;br&gt;&lt;/div&gt;" style="text;html=1;strokeColor=none;fillColor=none;align=center;verticalAlign=middle;whiteSpace=wrap;rounded=0;" parent="1" vertex="1">
                    <mxGeometry x="-1288.51" y="540.2099999999997" width="50" height="32.5" as="geometry"/>
                </mxCell>
                <mxCell id="594" value="&lt;div&gt;Phase sub-group&lt;br&gt;&lt;/div&gt;&lt;div&gt;S24&lt;br&gt;&lt;/div&gt;" style="text;html=1;strokeColor=none;fillColor=none;align=center;verticalAlign=middle;whiteSpace=wrap;rounded=0;" parent="1" vertex="1">
                    <mxGeometry x="-1420.51" y="533.9599999999999" width="96.5" height="45" as="geometry"/>
                </mxCell>
                <mxCell id="595" value="" style="edgeStyle=orthogonalEdgeStyle;shape=connector;rounded=0;orthogonalLoop=1;jettySize=auto;html=1;labelBackgroundColor=default;strokeColor=#9933FF;strokeWidth=2;fontFamily=Helvetica;fontSize=11;fontColor=default;endArrow=classic;fillColor=#1ba1e2;entryX=1;entryY=0.5;entryDx=0;entryDy=0;dashed=1;" parent="1" source="590" target="597" edge="1">
                    <mxGeometry relative="1" as="geometry">
                        <mxPoint x="-1584.77" y="723.9599999999999" as="sourcePoint"/>
                        <mxPoint x="-1470.77" y="692.9599999999999" as="targetPoint"/>
                    </mxGeometry>
                </mxCell>
                <mxCell id="596" style="edgeStyle=orthogonalEdgeStyle;shape=connector;rounded=0;orthogonalLoop=1;jettySize=auto;html=1;entryX=1;entryY=0.5;entryDx=0;entryDy=0;labelBackgroundColor=default;strokeColor=#9933FF;strokeWidth=2;fontFamily=Helvetica;fontSize=11;fontColor=default;endArrow=classic;fillColor=#1ba1e2;dashed=1;" parent="1" source="597" target="591" edge="1">
                    <mxGeometry relative="1" as="geometry"/>
                </mxCell>
                <mxCell id="597" value="&lt;div&gt;Sphere &lt;/div&gt;&lt;div&gt;S21&lt;br&gt;&lt;/div&gt;" style="text;html=1;strokeColor=none;fillColor=none;align=center;verticalAlign=middle;whiteSpace=wrap;rounded=0;" parent="1" vertex="1">
                    <mxGeometry x="-1288.51" y="494.90999999999974" width="50" height="30" as="geometry"/>
                </mxCell>
                <mxCell id="598" value="Terms in S29 if interested" style="ellipse;whiteSpace=wrap;html=1;fillColor=#FFFFCC;" parent="1" vertex="1">
                    <mxGeometry x="-637.01" y="502.53999999999996" width="70" height="60" as="geometry"/>
                </mxCell>
                <mxCell id="599" style="edgeStyle=orthogonalEdgeStyle;shape=connector;rounded=0;orthogonalLoop=1;jettySize=auto;html=1;entryX=0;entryY=0.5;entryDx=0;entryDy=0;labelBackgroundColor=default;strokeColor=#9933FF;strokeWidth=2;fontFamily=Helvetica;fontSize=11;fontColor=default;endArrow=classic;dashed=1;" parent="1" source="601" target="602" edge="1">
                    <mxGeometry relative="1" as="geometry"/>
                </mxCell>
                <mxCell id="600" style="edgeStyle=orthogonalEdgeStyle;shape=connector;rounded=0;orthogonalLoop=1;jettySize=auto;html=1;labelBackgroundColor=default;strokeColor=#9933FF;strokeWidth=2;fontFamily=Helvetica;fontSize=11;fontColor=default;endArrow=classic;" parent="1" source="601" target="629" edge="1">
                    <mxGeometry relative="1" as="geometry">
                        <mxPoint x="-866.5099999999995" y="688.3299999999997" as="targetPoint"/>
                    </mxGeometry>
                </mxCell>
                <mxCell id="601" value="What's the measurement-matrix-relationship?" style="whiteSpace=wrap;html=1;fillColor=#F8CECC;" parent="1" vertex="1">
                    <mxGeometry x="-941.51" y="587.76" width="150" height="72" as="geometry"/>
                </mxCell>
                <mxCell id="602" value="Terms in S02 if interested" style="ellipse;whiteSpace=wrap;html=1;fillColor=#FFFFCC;" parent="1" vertex="1">
                    <mxGeometry x="-741.51" y="593.76" width="70" height="60" as="geometry"/>
                </mxCell>
                <mxCell id="603" style="edgeStyle=orthogonalEdgeStyle;shape=connector;rounded=0;orthogonalLoop=1;jettySize=auto;html=1;entryX=0.5;entryY=0;entryDx=0;entryDy=0;labelBackgroundColor=default;strokeColor=#999999;strokeWidth=2;fontFamily=Helvetica;fontSize=11;fontColor=default;endArrow=classic;" parent="1" source="604" target="605" edge="1">
                    <mxGeometry relative="1" as="geometry"/>
                </mxCell>
                <mxCell id="604" value="&lt;span&gt;Could not identify a suitable measurement ID?&lt;/span&gt;" style="whiteSpace=wrap;html=1;align=center;fillColor=#999999;fontStyle=1" parent="1" vertex="1">
                    <mxGeometry x="636.38" y="-344.13" width="120" height="80" as="geometry"/>
                </mxCell>
                <mxCell id="605" value="Add new issue to OBISVocabs repository to request creation of a new vocabulary&lt;br&gt;&amp;nbsp;&lt;a href=&quot;https://github.com/nvs-vocabs/OBISVocabs/issues&quot;&gt;https://github.com/nvs-vocabs/OBISVocabs/issues&amp;nbsp;&lt;/a&gt;" style="whiteSpace=wrap;html=1;fillColor=#CCE5FF;fontStyle=0;" parent="1" vertex="1">
                    <mxGeometry x="605.13" y="-232.04000000000002" width="182.5" height="102.54" as="geometry"/>
                </mxCell>
                <mxCell id="606" style="edgeStyle=orthogonalEdgeStyle;shape=connector;rounded=0;orthogonalLoop=1;jettySize=auto;html=1;entryX=1;entryY=0.5;entryDx=0;entryDy=0;labelBackgroundColor=default;strokeColor=default;strokeWidth=2;align=center;verticalAlign=middle;fontFamily=Helvetica;fontSize=11;fontColor=default;endArrow=classic;" parent="1" source="610" target="646" edge="1">
                    <mxGeometry relative="1" as="geometry"/>
                </mxCell>
                <mxCell id="607" style="edgeStyle=orthogonalEdgeStyle;shape=connector;rounded=0;orthogonalLoop=1;jettySize=auto;html=1;entryX=1;entryY=0.5;entryDx=0;entryDy=0;labelBackgroundColor=default;strokeColor=default;strokeWidth=2;align=center;verticalAlign=middle;fontFamily=Helvetica;fontSize=11;fontColor=default;endArrow=classic;" parent="1" source="610" target="651" edge="1">
                    <mxGeometry relative="1" as="geometry"/>
                </mxCell>
                <mxCell id="608" style="edgeStyle=orthogonalEdgeStyle;rounded=0;orthogonalLoop=1;jettySize=auto;html=1;entryX=1;entryY=0.5;entryDx=0;entryDy=0;strokeColor=default;strokeWidth=2;align=center;verticalAlign=middle;fontFamily=Helvetica;fontSize=11;fontColor=default;labelBackgroundColor=default;endArrow=classic;" parent="1" source="610" target="655" edge="1">
                    <mxGeometry relative="1" as="geometry"/>
                </mxCell>
                <mxCell id="609" style="edgeStyle=orthogonalEdgeStyle;rounded=0;orthogonalLoop=1;jettySize=auto;html=1;entryX=1;entryY=0.5;entryDx=0;entryDy=0;strokeColor=default;strokeWidth=2;align=center;verticalAlign=middle;fontFamily=Helvetica;fontSize=11;fontColor=default;labelBackgroundColor=default;endArrow=classic;" parent="1" source="610" target="496" edge="1">
                    <mxGeometry relative="1" as="geometry"/>
                </mxCell>
                <mxCell id="610" value="Biological entity characteristics" style="whiteSpace=wrap;html=1;fillColor=#FFFFCC;" parent="1" vertex="1">
                    <mxGeometry x="-1424.01" y="-482.0400000000001" width="150" height="60" as="geometry"/>
                </mxCell>
                <mxCell id="611" style="edgeStyle=orthogonalEdgeStyle;shape=connector;rounded=0;orthogonalLoop=1;jettySize=auto;html=1;entryX=1;entryY=0.5;entryDx=0;entryDy=0;labelBackgroundColor=default;strokeColor=default;strokeWidth=2;align=center;verticalAlign=middle;fontFamily=Helvetica;fontSize=11;fontColor=default;endArrow=classic;" parent="1" source="612" target="667" edge="1">
                    <mxGeometry relative="1" as="geometry">
                        <mxPoint x="-1559.75" y="-952.0000000000002" as="targetPoint"/>
                    </mxGeometry>
                </mxCell>
                <mxCell id="612" value="Sampling device, instrument, platform/vessel information" style="whiteSpace=wrap;html=1;fillColor=#FFFFCC;" parent="1" vertex="1">
                    <mxGeometry x="-1424.01" y="-862.96" width="150" height="60" as="geometry"/>
                </mxCell>
                <mxCell id="613" style="edgeStyle=orthogonalEdgeStyle;shape=connector;rounded=0;orthogonalLoop=1;jettySize=auto;html=1;labelBackgroundColor=default;strokeColor=#9933FF;strokeWidth=2;fontFamily=Helvetica;fontSize=11;fontColor=default;endArrow=classic;" parent="1" source="614" target="584" edge="1">
                    <mxGeometry relative="1" as="geometry"/>
                </mxCell>
                <mxCell id="614" value="ACTION: Check search results for appropriate P01 codes, while carefully considering all methods used to obtain the measurement" style="whiteSpace=wrap;html=1;fillColor=#33FFFF;" parent="1" vertex="1">
                    <mxGeometry x="-1019.01" y="805.22" width="300" height="76" as="geometry"/>
                </mxCell>
                <mxCell id="615" value="ACTION: Consider the units of your measurements, whether a sub-group was targeted to help you determine the matrix and measurement-matrix relationship." style="whiteSpace=wrap;html=1;fillColor=#8BF4F8;" parent="1" vertex="1">
                    <mxGeometry x="-460" y="863.55" width="300" height="96.45" as="geometry"/>
                </mxCell>
                <mxCell id="616" value="ACTION: search for &quot;biological entity specified elsewhere&quot;, then from the Biological Entity (S25) filter, select Biological entity specified elsewhere, including subcomponent where applicable" style="whiteSpace=wrap;html=1;fillColor=#66FFFF;" parent="1" vertex="1">
                    <mxGeometry x="160" y="357.10999999999996" width="210" height="108.48" as="geometry"/>
                </mxCell>
                <mxCell id="617" value="ACTION: search for your measurement and/or select it from &quot;Measurement Property&quot;" style="whiteSpace=wrap;html=1;fillColor=#66FFFF;" parent="1" vertex="1">
                    <mxGeometry x="173.75" y="759.8100000000001" width="180" height="75.78" as="geometry"/>
                </mxCell>
                <mxCell id="618" value="ACTION: Consider if your biological measurement has a matrix element" style="whiteSpace=wrap;html=1;fillColor=#66FFFF;" parent="1" vertex="1">
                    <mxGeometry x="172.5" y="1072.59" width="180" height="64" as="geometry"/>
                </mxCell>
                <mxCell id="619" value="ACTION: Consider if the methods used to obtain the measurement are integral for understanding the measurement" style="whiteSpace=wrap;html=1;fillColor=#66FFFF;" parent="1" vertex="1">
                    <mxGeometry x="152.75" y="1284.59" width="220" height="64" as="geometry"/>
                </mxCell>
                <mxCell id="620" style="edgeStyle=orthogonalEdgeStyle;shape=connector;rounded=0;orthogonalLoop=1;jettySize=auto;html=1;entryX=1;entryY=0.25;entryDx=0;entryDy=0;labelBackgroundColor=default;strokeColor=#005700;strokeWidth=2;align=center;verticalAlign=middle;fontFamily=Helvetica;fontSize=11;fontColor=default;endArrow=classic;fillColor=#008a00;" parent="1" source="621" target="631" edge="1">
                    <mxGeometry relative="1" as="geometry"/>
                </mxCell>
                <mxCell id="621" value="ACTION: If your measurement occurred within a matrix, consider the relationship between the two (e.g. per unit volume of)" style="whiteSpace=wrap;html=1;fillColor=#66FFFF;" parent="1" vertex="1">
                    <mxGeometry x="177.5" y="1487.59" width="180" height="82" as="geometry"/>
                </mxCell>
                <mxCell id="622" value="ACTION: Look in the search results for a P01 code that best matches your data. Use the guiding questions below to help you narrow the search" style="whiteSpace=wrap;html=1;fillColor=#66FFFF;" parent="1" vertex="1">
                    <mxGeometry x="143.75" y="851.59" width="240" height="94" as="geometry"/>
                </mxCell>
                <mxCell id="623" style="edgeStyle=orthogonalEdgeStyle;shape=connector;rounded=0;orthogonalLoop=1;jettySize=auto;html=1;entryX=0.5;entryY=0;entryDx=0;entryDy=0;labelBackgroundColor=default;strokeColor=#006EAF;strokeWidth=2;fontFamily=Helvetica;fontSize=11;fontColor=default;endArrow=classic;fillColor=#1ba1e2;" parent="1" source="624" target="521" edge="1">
                    <mxGeometry relative="1" as="geometry"/>
                </mxCell>
                <mxCell id="624" value="ACTION: search for the name of the chemical substance in the Free Search box" style="whiteSpace=wrap;html=1;fillColor=#66FFFF;" parent="1" vertex="1">
                    <mxGeometry x="-398" y="196.85" width="166" height="74.63" as="geometry"/>
                </mxCell>
                <mxCell id="625" value="ACTION: search for or identify the measurement from &quot;Measurement Property&quot;. Most likely this will be concentration" style="whiteSpace=wrap;html=1;fillColor=#66FFFF;" parent="1" vertex="1">
                    <mxGeometry x="-404" y="539" width="180" height="75.78" as="geometry"/>
                </mxCell>
                <mxCell id="626" style="edgeStyle=orthogonalEdgeStyle;shape=connector;rounded=0;orthogonalLoop=1;jettySize=auto;html=1;labelBackgroundColor=default;strokeColor=#006EAF;strokeWidth=2;align=center;verticalAlign=middle;fontFamily=Helvetica;fontSize=11;fontColor=default;endArrow=classic;fillColor=#1ba1e2;" parent="1" source="627" target="631" edge="1">
                    <mxGeometry relative="1" as="geometry"/>
                </mxCell>
                <mxCell id="627" value="ACTION: Consider all methods used to obtain the measurement" style="whiteSpace=wrap;html=1;fillColor=#66FFFF;" parent="1" vertex="1">
                    <mxGeometry x="-414.49" y="1101.64" width="208.49" height="64" as="geometry"/>
                </mxCell>
                <mxCell id="628" value="ACTION: search for the measurement. Be careful not to apply too many filters, as the search may become too narrow" style="whiteSpace=wrap;html=1;fillColor=#33FFFF;" parent="1" vertex="1">
                    <mxGeometry x="-966.51" y="272.70000000000005" width="180" height="79.52" as="geometry"/>
                </mxCell>
                <mxCell id="629" value="ACTION: Consider the units of your measurements, whether a sub-group was targeted to help you determine the matrix and measurement-matrix relationship." style="whiteSpace=wrap;html=1;fillColor=#33FFFF;" parent="1" vertex="1">
                    <mxGeometry x="-1018.01" y="691.83" width="302" height="96.45" as="geometry"/>
                </mxCell>
                <mxCell id="630" style="edgeStyle=orthogonalEdgeStyle;shape=connector;rounded=0;orthogonalLoop=1;jettySize=auto;html=1;labelBackgroundColor=default;strokeColor=#006EAF;strokeWidth=2;fontFamily=Helvetica;fontSize=11;fontColor=default;endArrow=classic;fillColor=#1ba1e2;exitX=0.5;exitY=1;exitDx=0;exitDy=0;entryX=0.5;entryY=0;entryDx=0;entryDy=0;" parent="1" source="470" target="475" edge="1">
                    <mxGeometry relative="1" as="geometry">
                        <mxPoint x="-580" y="-150" as="sourcePoint"/>
                        <mxPoint x="-315" y="-140" as="targetPoint"/>
                    </mxGeometry>
                </mxCell>
                <mxCell id="631" value="ACTION: click on link for conceptID and copy whole URI into measurement ID field" style="whiteSpace=wrap;html=1;fillColor=#66FFFF;" parent="1" vertex="1">
                    <mxGeometry x="-400" y="1509" width="180" height="82" as="geometry"/>
                </mxCell>
                <mxCell id="632" style="edgeStyle=orthogonalEdgeStyle;shape=connector;rounded=0;orthogonalLoop=1;jettySize=auto;html=1;labelBackgroundColor=default;strokeColor=default;strokeWidth=2;align=center;verticalAlign=middle;fontFamily=Helvetica;fontSize=11;fontColor=default;endArrow=classic;" parent="1" source="633" target="634" edge="1">
                    <mxGeometry relative="1" as="geometry"/>
                </mxCell>
                <mxCell id="633" value="&lt;b style=&quot;font-weight:normal;&quot; id=&quot;docs-internal-guid-d965977d-7fff-1810-6f7a-29a1b171b620&quot;&gt;&lt;span style=&quot;font-family: Arial, sans-serif; color: rgb(0, 0, 0); background-color: transparent; font-weight: 400; font-style: normal; font-variant: normal; text-decoration: none; vertical-align: baseline;&quot;&gt;&lt;font style=&quot;&quot;&gt;Broad habitat description &lt;br&gt;(e.g. littoral mud)&amp;nbsp;&lt;br&gt;&lt;font style=&quot;font-size: 11px;&quot;&gt;European Nature Information system&amp;nbsp;&lt;/font&gt;&lt;span style=&quot;border-color: var(--border-color); font-family: Helvetica; border-color: var(--border-color);&quot; id=&quot;docs-internal-guid-d965977d-7fff-1810-6f7a-29a1b171b620&quot;&gt;&lt;/span&gt;&lt;br&gt;&lt;/font&gt;&lt;/span&gt;&lt;/b&gt;" style="text;whiteSpace=wrap;html=1;fillColor=#FFF2CC;strokeColor=default;align=center;verticalAlign=middle;" parent="1" vertex="1">
                    <mxGeometry x="-1745.13" y="-1075.54" width="190" height="50" as="geometry"/>
                </mxCell>
                <mxCell id="634" value="C35" style="ellipse;whiteSpace=wrap;html=1;fillColor=#CCE5FF;" parent="1" vertex="1">
                    <mxGeometry x="-1880" y="-1080.54" width="60" height="60" as="geometry"/>
                </mxCell>
                <mxCell id="635" style="edgeStyle=orthogonalEdgeStyle;shape=connector;rounded=0;orthogonalLoop=1;jettySize=auto;html=1;entryX=1;entryY=0.5;entryDx=0;entryDy=0;labelBackgroundColor=default;strokeColor=default;strokeWidth=2;align=center;verticalAlign=middle;fontFamily=Helvetica;fontSize=11;fontColor=default;endArrow=classic;" parent="1" source="637" target="633" edge="1">
                    <mxGeometry relative="1" as="geometry"/>
                </mxCell>
                <mxCell id="636" style="edgeStyle=orthogonalEdgeStyle;shape=connector;rounded=0;orthogonalLoop=1;jettySize=auto;html=1;entryX=1;entryY=0.5;entryDx=0;entryDy=0;labelBackgroundColor=default;strokeColor=default;strokeWidth=2;align=center;verticalAlign=middle;fontFamily=Helvetica;fontSize=11;fontColor=default;endArrow=classic;" parent="1" source="637" target="649" edge="1">
                    <mxGeometry relative="1" as="geometry"/>
                </mxCell>
                <mxCell id="637" value="Habitat" style="whiteSpace=wrap;html=1;fillColor=#FFFFCC;" parent="1" vertex="1">
                    <mxGeometry x="-1424.01" y="-1130" width="150" height="60" as="geometry"/>
                </mxCell>
                <mxCell id="638" value="M23&amp;nbsp;&lt;div&gt;&lt;span style=&quot;font-size: 11px;&quot;&gt;&amp;amp;&lt;/span&gt;&lt;br&gt;M24&lt;/div&gt;" style="ellipse;whiteSpace=wrap;html=1;fillColor=#CCE5FF;" parent="1" vertex="1">
                    <mxGeometry x="-1880" y="-1190" width="60" height="60" as="geometry"/>
                </mxCell>
                <mxCell id="639" value="Terms in S12 if interested" style="ellipse;whiteSpace=wrap;html=1;fillColor=#FFFFCC;" parent="1" vertex="1">
                    <mxGeometry x="421.26" y="226.04999999999998" width="69.01" height="60" as="geometry"/>
                </mxCell>
                <mxCell id="645" style="edgeStyle=orthogonalEdgeStyle;shape=connector;rounded=0;orthogonalLoop=1;jettySize=auto;html=1;entryX=1;entryY=0.5;entryDx=0;entryDy=0;labelBackgroundColor=default;strokeColor=default;strokeWidth=2;align=center;verticalAlign=middle;fontFamily=Helvetica;fontSize=11;fontColor=default;endArrow=classic;" parent="1" source="646" target="647" edge="1">
                    <mxGeometry relative="1" as="geometry"/>
                </mxCell>
                <mxCell id="646" value="Behaviour" style="whiteSpace=wrap;html=1;align=center;fillColor=#FFF2CC;" parent="1" vertex="1">
                    <mxGeometry x="-1745.13" y="-329.0000000000001" width="190" height="50" as="geometry"/>
                </mxCell>
                <mxCell id="647" value="ICES Behaviour codes" style="ellipse;whiteSpace=wrap;html=1;fillColor=#CCE5FF;" parent="1" vertex="1">
                    <mxGeometry x="-1880" y="-334.0000000000001" width="60" height="60" as="geometry"/>
                </mxCell>
                <mxCell id="648" style="edgeStyle=orthogonalEdgeStyle;shape=connector;rounded=0;orthogonalLoop=1;jettySize=auto;html=1;entryX=1;entryY=0.5;entryDx=0;entryDy=0;labelBackgroundColor=default;strokeColor=default;strokeWidth=2;align=center;verticalAlign=middle;fontFamily=Helvetica;fontSize=11;fontColor=default;endArrow=classic;" parent="1" source="649" target="638" edge="1">
                    <mxGeometry relative="1" as="geometry"/>
                </mxCell>
                <mxCell id="649" value="HELCOM &amp;amp;&lt;br&gt;Marine Habitat Classification for Britain and Ireland" style="text;whiteSpace=wrap;html=1;fillColor=#FFF2CC;strokeColor=default;align=center;verticalAlign=middle;" parent="1" vertex="1">
                    <mxGeometry x="-1745.13" y="-1184.73" width="190" height="50" as="geometry"/>
                </mxCell>
                <mxCell id="650" style="edgeStyle=orthogonalEdgeStyle;shape=connector;rounded=0;orthogonalLoop=1;jettySize=auto;html=1;entryX=1;entryY=0.5;entryDx=0;entryDy=0;labelBackgroundColor=default;strokeColor=default;strokeWidth=2;align=center;verticalAlign=middle;fontFamily=Helvetica;fontSize=11;fontColor=default;endArrow=classic;" parent="1" source="651" target="652" edge="1">
                    <mxGeometry relative="1" as="geometry"/>
                </mxCell>
                <mxCell id="651" value="Morphology" style="whiteSpace=wrap;html=1;align=center;fillColor=#FFF2CC;" parent="1" vertex="1">
                    <mxGeometry x="-1745.13" y="-477" width="190" height="50" as="geometry"/>
                </mxCell>
                <mxCell id="652" value="S14" style="ellipse;whiteSpace=wrap;html=1;fillColor=#CCE5FF;" parent="1" vertex="1">
                    <mxGeometry x="-1880" y="-482.03999999999996" width="60" height="60" as="geometry"/>
                </mxCell>
                <mxCell id="653" value="L06&lt;br&gt;&lt;font style=&quot;font-size: 11px;&quot;&gt;(Platform category)&lt;/font&gt;" style="ellipse;whiteSpace=wrap;html=1;fillColor=#CCE5FF;" parent="1" vertex="1">
                    <mxGeometry x="-1880" y="-729.52" width="60" height="60" as="geometry"/>
                </mxCell>
                <mxCell id="654" style="edgeStyle=orthogonalEdgeStyle;rounded=0;orthogonalLoop=1;jettySize=auto;html=1;entryX=1;entryY=0.5;entryDx=0;entryDy=0;strokeColor=default;strokeWidth=2;align=center;verticalAlign=middle;fontFamily=Helvetica;fontSize=11;fontColor=default;labelBackgroundColor=default;endArrow=classic;" parent="1" source="655" target="656" edge="1">
                    <mxGeometry relative="1" as="geometry"/>
                </mxCell>
                <mxCell id="655" value="Colour" style="whiteSpace=wrap;html=1;align=center;fillColor=#FFF2CC;" parent="1" vertex="1">
                    <mxGeometry x="-1745.13" y="-403" width="190" height="50" as="geometry"/>
                </mxCell>
                <mxCell id="656" value="S15" style="ellipse;whiteSpace=wrap;html=1;fillColor=#CCE5FF;" parent="1" vertex="1">
                    <mxGeometry x="-1880" y="-407.98" width="60" height="60" as="geometry"/>
                </mxCell>
                <mxCell id="657" style="edgeStyle=orthogonalEdgeStyle;rounded=0;orthogonalLoop=1;jettySize=auto;html=1;entryX=1;entryY=0.5;entryDx=0;entryDy=0;strokeColor=default;strokeWidth=2;align=center;verticalAlign=middle;fontFamily=Helvetica;fontSize=11;fontColor=default;labelBackgroundColor=default;endArrow=classic;" parent="1" source="659" target="661" edge="1">
                    <mxGeometry relative="1" as="geometry"/>
                </mxCell>
                <mxCell id="658" style="edgeStyle=orthogonalEdgeStyle;rounded=0;orthogonalLoop=1;jettySize=auto;html=1;entryX=1;entryY=0.5;entryDx=0;entryDy=0;strokeColor=default;strokeWidth=2;align=center;verticalAlign=middle;fontFamily=Helvetica;fontSize=11;fontColor=default;labelBackgroundColor=default;endArrow=classic;" parent="1" source="659" target="663" edge="1">
                    <mxGeometry relative="1" as="geometry"/>
                </mxCell>
                <mxCell id="659" value="&lt;div&gt;Is the name and model of the sampling instrument known?&lt;/div&gt;" style="whiteSpace=wrap;html=1;align=center;fillColor=#FFF2CC;" parent="1" vertex="1">
                    <mxGeometry x="-2010" y="-949.46" width="190" height="50" as="geometry"/>
                </mxCell>
                <mxCell id="660" style="edgeStyle=orthogonalEdgeStyle;rounded=0;orthogonalLoop=1;jettySize=auto;html=1;entryX=1;entryY=0.5;entryDx=0;entryDy=0;strokeColor=default;strokeWidth=2;align=center;verticalAlign=middle;fontFamily=Helvetica;fontSize=11;fontColor=default;labelBackgroundColor=default;endArrow=classic;" parent="1" source="661" target="665" edge="1">
                    <mxGeometry relative="1" as="geometry"/>
                </mxCell>
                <mxCell id="661" value="&lt;div&gt;Yes&lt;/div&gt;" style="whiteSpace=wrap;html=1;align=center;fillColor=none;strokeColor=none;" parent="1" vertex="1">
                    <mxGeometry x="-2110" y="-963.86" width="30" height="35" as="geometry"/>
                </mxCell>
                <mxCell id="662" style="edgeStyle=orthogonalEdgeStyle;rounded=0;orthogonalLoop=1;jettySize=auto;html=1;strokeColor=default;strokeWidth=2;align=center;verticalAlign=middle;fontFamily=Helvetica;fontSize=11;fontColor=default;labelBackgroundColor=default;endArrow=classic;" parent="1" source="663" target="664" edge="1">
                    <mxGeometry relative="1" as="geometry"/>
                </mxCell>
                <mxCell id="663" value="&lt;div&gt;No&lt;/div&gt;" style="whiteSpace=wrap;html=1;align=center;fillColor=none;strokeColor=none;" parent="1" vertex="1">
                    <mxGeometry x="-2110" y="-921.0500000000001" width="30" height="35" as="geometry"/>
                </mxCell>
                <mxCell id="664" value="L05 &lt;br&gt;&lt;font style=&quot;font-size: 11px;&quot;&gt;(categories)&lt;/font&gt;" style="ellipse;whiteSpace=wrap;html=1;fillColor=#CCE5FF;strokeColor=default;align=center;verticalAlign=middle;fontFamily=Helvetica;fontSize=12;fontColor=default;" parent="1" vertex="1">
                    <mxGeometry x="-2214" y="-915.0500000000001" width="60" height="60" as="geometry"/>
                </mxCell>
                <mxCell id="665" value="L22&lt;br&gt;&lt;font style=&quot;font-size: 11px;&quot;&gt;(model names)&lt;/font&gt;" style="ellipse;whiteSpace=wrap;html=1;fillColor=#CCE5FF;" parent="1" vertex="1">
                    <mxGeometry x="-2214" y="-995.86" width="60" height="60" as="geometry"/>
                </mxCell>
                <mxCell id="666" style="edgeStyle=orthogonalEdgeStyle;rounded=0;orthogonalLoop=1;jettySize=auto;html=1;entryX=1;entryY=0.5;entryDx=0;entryDy=0;strokeColor=default;strokeWidth=2;align=center;verticalAlign=middle;fontFamily=Helvetica;fontSize=11;fontColor=default;labelBackgroundColor=default;endArrow=classic;" parent="1" source="667" target="659" edge="1">
                    <mxGeometry relative="1" as="geometry"/>
                </mxCell>
                <mxCell id="667" value="&lt;div&gt;Sampling device information&lt;/div&gt;" style="whiteSpace=wrap;html=1;align=center;fillColor=#FFF2CC;" parent="1" vertex="1">
                    <mxGeometry x="-1745.13" y="-949.46" width="190" height="50" as="geometry"/>
                </mxCell>
                <mxCell id="676" style="edgeStyle=orthogonalEdgeStyle;shape=connector;rounded=0;orthogonalLoop=1;jettySize=auto;html=1;entryX=0.5;entryY=0;entryDx=0;entryDy=0;labelBackgroundColor=default;strokeColor=#FF9933;strokeWidth=2;align=center;verticalAlign=middle;fontFamily=Helvetica;fontSize=11;fontColor=default;endArrow=classic;" parent="1" source="677" target="681" edge="1">
                    <mxGeometry relative="1" as="geometry"/>
                </mxCell>
                <mxCell id="677" value="&lt;b&gt;Sampling measurements&lt;/b&gt;&lt;br&gt;(e.g. device, protocol)" style="whiteSpace=wrap;html=1;fillColor=#FFB366;" parent="1" vertex="1">
                    <mxGeometry x="-1400.14" y="-152.14" width="120" height="80" as="geometry"/>
                </mxCell>
                <mxCell id="678" value="ACTION: search for &quot;sampling parameter&quot;" style="whiteSpace=wrap;html=1;fillColor=#33FFFF;" parent="1" vertex="1">
                    <mxGeometry x="-1408.9999999999995" y="69.68000000000002" width="137.74" height="64" as="geometry"/>
                </mxCell>
                <mxCell id="684" style="edgeStyle=orthogonalEdgeStyle;shape=connector;rounded=0;html=1;entryX=0;entryY=0.5;entryDx=0;entryDy=0;labelBackgroundColor=default;strokeColor=#FF9933;strokeWidth=2;fontFamily=Helvetica;fontSize=11;fontColor=default;endArrow=classic;" parent="1" source="679" target="631" edge="1">
                    <mxGeometry relative="1" as="geometry">
                        <Array as="points">
                            <mxPoint x="-1340" y="390"/>
                            <mxPoint x="-1470" y="390"/>
                            <mxPoint x="-1470" y="1550"/>
                        </Array>
                    </mxGeometry>
                </mxCell>
                <mxCell id="679" value="ACTION: Browse or search by keyword to find sampling measurement&lt;div&gt;Keep in mind codes names are generic&lt;/div&gt;" style="whiteSpace=wrap;html=1;fillColor=#33FFFF;" parent="1" vertex="1">
                    <mxGeometry x="-1425" y="258.11" width="170" height="91.89" as="geometry"/>
                </mxCell>
                <mxCell id="680" style="edgeStyle=orthogonalEdgeStyle;shape=connector;rounded=0;orthogonalLoop=1;jettySize=auto;html=1;labelBackgroundColor=default;strokeColor=#FF9933;strokeWidth=2;align=center;verticalAlign=middle;fontFamily=Helvetica;fontSize=11;fontColor=default;endArrow=classic;" parent="1" source="681" target="678" edge="1">
                    <mxGeometry relative="1" as="geometry"/>
                </mxCell>
                <mxCell id="681" value="ACTION: navigate to&amp;nbsp;&lt;a href=&quot;https://vocab.seadatanet.org/p01-facet-search&quot;&gt;SeaDataNet facet search&lt;/a&gt;" style="whiteSpace=wrap;html=1;fillColor=#33FFFF;" parent="1" vertex="1">
                    <mxGeometry x="-1409" y="-32.32000000000002" width="137.74" height="64" as="geometry"/>
                </mxCell>
                <mxCell id="682" value="What is the measurement property?" style="whiteSpace=wrap;html=1;fillColor=#FFF2CC;" parent="1" vertex="1">
                    <mxGeometry x="-1400.13" y="156.68000000000004" width="120" height="62" as="geometry"/>
                </mxCell>
                <mxCell id="683" style="edgeStyle=orthogonalEdgeStyle;shape=connector;rounded=0;orthogonalLoop=1;jettySize=auto;html=1;labelBackgroundColor=default;strokeColor=#FF9933;strokeWidth=2;align=center;verticalAlign=middle;fontFamily=Helvetica;fontSize=11;fontColor=default;endArrow=classic;exitX=0.5;exitY=1;exitDx=0;exitDy=0;" parent="1" source="682" target="679" edge="1">
                    <mxGeometry relative="1" as="geometry">
                        <mxPoint x="-1180" y="190" as="sourcePoint"/>
                        <mxPoint x="-1220" y="220" as="targetPoint"/>
                    </mxGeometry>
                </mxCell>
            </root>
        </mxGraphModel>
    </diagram>
</mxfile>